<svg id="Layer_1" data-name="Layer 1" xmlns="http://www.w3.org/2000/svg" viewBox="0 0 580 142"><title>Artboard 1</title><path d="M301.27,26.26l46.21,61.31V26.26h16.64v89.6H347.86L301.78,54.68v61.19H285V26.26Z" style="fill:#28ada0"/><path d="M454.24,26.26V41.49H426.33v74.37H409.05V41.49H381.15V26.26Z" style="fill:#28ada0"/><path d="M488.55,26.26v89.6H471.39V26.26Z" style="fill:#28ada0"/><path d="M545,41.11c-8.06,0-13.31,2.94-13.31,8.45,0,18.18,48.13,8.32,48,40.45,0,16.77-14.59,26.5-34.31,26.5a58.19,58.19,0,0,1-37.89-14.34l7.17-14.46c9.22,8.19,21.38,13.18,31,13.18S561,97.3,561,91c0-18.69-48.13-8.06-48.13-39.94,0-15.62,13.44-25.6,33.54-25.6A61,61,0,0,1,578.8,35l-6.91,14.85C562.28,44.05,551.92,41.11,545,41.11Z" style="fill:#28ada0"/><polygon points="48.81 -0.31 0.31 115.5 27.77 115.5 48.68 65.9 69.37 115.5 96.8 115.5 48.81 -0.31" style="fill:#396a92"/><polygon points="48.77 27.69 6.97 127.5 24.64 127.5 48.66 69.75 72.49 127.5 90.13 127.5 48.77 27.69" style="fill:#28ada0"/><polygon points="220.81 -0.31 172.31 115.5 199.77 115.5 220.68 65.9 241.37 115.5 268.8 115.5 220.81 -0.31" style="fill:#396a92"/><polygon points="220.77 27.69 178.97 127.5 196.64 127.5 220.66 69.75 244.49 127.5 262.13 127.5 220.77 27.69" style="fill:#28ada0"/><polygon points="134.3 142.31 182.79 26.5 155.33 26.5 134.42 76.1 113.73 26.5 86.31 26.5 134.3 142.31" style="fill:#396a92"/><polygon points="134.33 114.31 176.13 14.5 158.46 14.5 134.44 72.25 110.61 14.5 92.97 14.5 134.33 114.31" style="fill:#28ada0"/></svg>