<svg xmlns="http://www.w3.org/2000/svg" xmlns:xlink="http://www.w3.org/1999/xlink" viewBox="0 0 739.63 315.09"><defs><clipPath id="clip-path"><path d="M660.25,175.88a19.82,19.82,0,1,1,5.8-14A19.73,19.73,0,0,1,660.25,175.88Z" style="fill:#cdd5d7;stroke:#484f59;stroke-width:3px"/></clipPath></defs><title>Artboard 168</title><g id="Layer_4" data-name="Layer 4"><line x1="683.85" y1="244.67" x2="682.35" y2="244.67" style="fill:none;stroke:#484f59;stroke-miterlimit:10;stroke-width:3px"/><line x1="679.41" y1="244.67" x2="604.4" y2="244.67" style="fill:none;stroke:#484f59;stroke-miterlimit:10;stroke-width:3px;stroke-dasharray:2.9416799545288086,2.9416799545288086"/><line x1="602.93" y1="244.67" x2="601.43" y2="244.67" style="fill:none;stroke:#484f59;stroke-miterlimit:10;stroke-width:3px"/><circle cx="688.7" cy="244.67" r="5.82" style="fill:#cdd5d7;stroke:#484f59;stroke-miterlimit:10;stroke-width:3px"/><polyline points="583.23 92.85 646.03 92.85 646.03 149.41" style="fill:none;stroke:#484f59;stroke-miterlimit:10;stroke-width:3px"/><polyline points="592.8 102.55 583.11 92.85 592.8 83.15" style="fill:none;stroke:#484f59;stroke-miterlimit:10;stroke-width:3px"/><line x1="587.7" y1="145.76" x2="587.7" y2="208.79" style="fill:none;stroke:#484f59;stroke-miterlimit:10;stroke-width:3px;stroke-dasharray:3,3"/><line x1="138.87" y1="73.03" x2="140.37" y2="73.03" style="fill:none;stroke:#484f59;stroke-miterlimit:10;stroke-width:3px"/><line x1="143.28" y1="73.03" x2="199.92" y2="73.03" style="fill:none;stroke:#484f59;stroke-miterlimit:10;stroke-width:3px;stroke-dasharray:2.904789924621582,2.904789924621582"/><polyline points="201.38 73.03 202.88 73.03 202.88 74.53" style="fill:none;stroke:#484f59;stroke-miterlimit:10;stroke-width:3px"/><line x1="202.87" y1="77.44" x2="202.87" y2="139.9" style="fill:none;stroke:#484f59;stroke-miterlimit:10;stroke-width:3px;stroke-dasharray:2.9051899909973145,2.9051899909973145"/><line x1="202.87" y1="141.35" x2="202.87" y2="142.85" style="fill:none;stroke:#484f59;stroke-miterlimit:10;stroke-width:3px"/><circle cx="134.03" cy="73.03" r="5.82" style="fill:#cdd5d7;stroke:#484f59;stroke-miterlimit:10;stroke-width:3px"/><line x1="539.36" y1="121.52" x2="539.36" y2="123.02" style="fill:none;stroke:#484f59;stroke-miterlimit:10;stroke-width:3px"/><line x1="539.36" y1="125.72" x2="539.36" y2="135.16" style="fill:none;stroke:#484f59;stroke-miterlimit:10;stroke-width:3px;stroke-dasharray:2.6970698833465576,2.6970698833465576"/><polyline points="539.36 136.5 539.36 138 537.86 138" style="fill:none;stroke:#484f59;stroke-miterlimit:10;stroke-width:3px"/><line x1="534.96" y1="138" x2="472.5" y2="138" style="fill:none;stroke:#484f59;stroke-miterlimit:10;stroke-width:3px;stroke-dasharray:2.905210018157959,2.905210018157959"/><line x1="471.04" y1="138" x2="469.54" y2="138" style="fill:none;stroke:#484f59;stroke-miterlimit:10;stroke-width:3px"/><circle cx="539.36" cy="116.67" r="5.82" style="fill:#cdd5d7;stroke:#484f59;stroke-miterlimit:10;stroke-width:3px"/><line x1="76.81" y1="228.19" x2="76.81" y2="229.69" style="fill:none;stroke:#484f59;stroke-miterlimit:10;stroke-width:3px"/><line x1="76.81" y1="232.39" x2="76.81" y2="241.82" style="fill:none;stroke:#484f59;stroke-miterlimit:10;stroke-width:3px;stroke-dasharray:2.6968801021575928,2.6968801021575928"/><polyline points="76.81 243.17 76.81 244.67 78.31 244.67" style="fill:none;stroke:#484f59;stroke-miterlimit:10;stroke-width:3px"/><line x1="81.35" y1="244.67" x2="334.65" y2="244.67" style="fill:none;stroke:#484f59;stroke-miterlimit:10;stroke-width:3px;stroke-dasharray:3.0335500240325928,3.0335500240325928"/><line x1="336.16" y1="244.67" x2="337.66" y2="244.67" style="fill:none;stroke:#484f59;stroke-miterlimit:10;stroke-width:3px"/><circle cx="76.81" cy="223.34" r="5.82" style="fill:#cdd5d7;stroke:#484f59;stroke-miterlimit:10;stroke-width:3px"/><line x1="645.06" y1="198.13" x2="645.06" y2="199.63" style="fill:none;stroke:#484f59;stroke-miterlimit:10;stroke-width:3px"/><line x1="645.06" y1="202.53" x2="645.06" y2="230.09" style="fill:none;stroke:#484f59;stroke-miterlimit:10;stroke-width:3px;stroke-dasharray:2.9008800983428955,2.9008800983428955"/><polyline points="645.06 231.54 645.06 233.04 643.56 233.04" style="fill:none;stroke:#484f59;stroke-miterlimit:10;stroke-width:3px"/><line x1="640.66" y1="233.04" x2="578.2" y2="233.04" style="fill:none;stroke:#484f59;stroke-miterlimit:10;stroke-width:3px;stroke-dasharray:2.9051499366760254,2.9051499366760254"/><line x1="576.74" y1="233.04" x2="575.24" y2="233.04" style="fill:none;stroke:#484f59;stroke-miterlimit:10;stroke-width:3px"/><circle cx="645.06" cy="193.28" r="5.82" style="fill:#cdd5d7;stroke:#484f59;stroke-miterlimit:10;stroke-width:3px"/><line x1="509.3" y1="164.19" x2="510.8" y2="164.19" style="fill:none;stroke:#484f59;stroke-miterlimit:10;stroke-width:3px"/><line x1="513.96" y1="164.19" x2="556.65" y2="164.19" style="fill:none;stroke:#484f59;stroke-miterlimit:10;stroke-width:3px;stroke-dasharray:3.1616499423980713,3.1616499423980713"/><polyline points="558.23 164.19 559.73 164.19 559.73 165.69" style="fill:none;stroke:#484f59;stroke-miterlimit:10;stroke-width:3px"/><line x1="559.73" y1="168.53" x2="559.73" y2="212.66" style="fill:none;stroke:#484f59;stroke-miterlimit:10;stroke-width:3px;stroke-dasharray:2.8467700481414795,2.8467700481414795"/><line x1="559.73" y1="214.08" x2="559.73" y2="215.58" style="fill:none;stroke:#484f59;stroke-miterlimit:10;stroke-width:3px"/><circle cx="504.45" cy="164.19" r="5.82" style="fill:#cdd5d7;stroke:#484f59;stroke-miterlimit:10;stroke-width:3px"/><circle cx="587.7" cy="142.85" r="5.82" style="fill:#cdd5d7;stroke:#484f59;stroke-miterlimit:10;stroke-width:3px"/><path d="M491.26,181.17V67.54a5.33,5.33,0,0,0-5.32-5.32H302.32A5.33,5.33,0,0,0,297,67.54V181.17Z" style="fill:#cdd5d7;stroke:#484f59;stroke-miterlimit:10;stroke-width:3px"/><rect x="306.12" y="71.48" width="176.03" height="100.32" style="fill:#fff;stroke:#424953;stroke-width:3px"/><path d="M296.85,181.06v16.39c0,3.14,3.22,6.64,6.37,6.64H486.39c3.14,0,5-3.23,5-6.37V181.06Z" style="fill:#fff;stroke:#424953;stroke-width:3px"/><path d="M424.63,223.71c-1.73-.75-3.81-1.69-5-2.36-2.14-1.19-2.57-1.33-3.37-5.38-.88-4.43-.16-7.44-.49-11.52l-43.1-.22c-.34,4.07.39,7.32-.49,11.74-.8,4.05-1.36,4.19-3.51,5.38-1.21.67-3.26,1.59-5,2.33h0" style="fill:#e5e8ec;stroke:#424953;stroke-width:3px"/><line x1="358.2" y1="223.7" x2="430.07" y2="223.7" style="fill:none;stroke:#424953;stroke-width:3px"/><line x1="667.37" y1="52.59" x2="667.37" y2="55.58" style="fill:none;stroke:#484f59;stroke-miterlimit:10;stroke-width:3px"/><line x1="667.37" y1="52.59" x2="667.37" y2="55.58" style="fill:none;stroke:#484f59;stroke-miterlimit:10;stroke-width:3px"/><line x1="657.94" y1="58.03" x2="660.53" y2="59.53" style="fill:none;stroke:#484f59;stroke-miterlimit:10;stroke-width:3px"/><line x1="657.94" y1="68.92" x2="660.53" y2="67.43" style="fill:none;stroke:#484f59;stroke-miterlimit:10;stroke-width:3px"/><line x1="667.37" y1="74.36" x2="667.36" y2="71.38" style="fill:none;stroke:#484f59;stroke-miterlimit:10;stroke-width:3px"/><line x1="676.79" y1="68.92" x2="674.2" y2="67.43" style="fill:none;stroke:#484f59;stroke-miterlimit:10;stroke-width:3px"/><line x1="676.79" y1="58.03" x2="674.21" y2="59.53" style="fill:none;stroke:#484f59;stroke-miterlimit:10;stroke-width:3px"/><path d="M239.67,173.34a26.84,26.84,0,0,1,0,37.94" style="fill:none;stroke:#484f59;stroke-width:3px"/><path d="M234.1,178.91a19,19,0,0,1,0,26.8" style="fill:none;stroke:#484f59;stroke-width:3px"/><path d="M228.23,184.78a10.64,10.64,0,0,1,0,15.06" style="fill:none;stroke:#484f59;stroke-width:3px"/><path d="M168.21,173.34a26.84,26.84,0,0,0,0,37.94" style="fill:none;stroke:#484f59;stroke-width:3px"/><path d="M173.78,178.91a19,19,0,0,0,0,26.8" style="fill:none;stroke:#484f59;stroke-width:3px"/><path d="M179.65,184.78a10.64,10.64,0,0,0,0,15.06" style="fill:none;stroke:#484f59;stroke-width:3px"/><polygon points="194.6 105.14 253.84 105.14 253.84 143.07 214.64 143.07 204.58 153.14 204.58 143.07 194.6 143.07 194.6 105.14" style="fill:#cdd5d7;stroke:#484f59;stroke-miterlimit:10;stroke-width:3px"/><polygon points="286.89 72.32 213.09 72.32 213.09 124.74 259.21 124.74 273.11 138.64 273.11 124.74 286.89 124.74 286.89 72.32" style="fill:#fff;stroke:#484f59;stroke-miterlimit:10;stroke-width:3px"/><line x1="226.46" y1="89.07" x2="273.52" y2="89.07" style="fill:#bae5f8;stroke:#484f59;stroke-width:3px"/><line x1="226.46" y1="99.36" x2="273.52" y2="99.36" style="fill:#bae5f8;stroke:#484f59;stroke-width:3px"/><line x1="226.46" y1="109.65" x2="273.52" y2="109.65" style="fill:#bae5f8;stroke:#484f59;stroke-width:3px"/><rect x="526.64" y="197.64" width="80.49" height="58.18" rx="2.91" ry="2.91" style="fill:#b7bec0;stroke:#484f59;stroke-miterlimit:10;stroke-width:3px"/><path d="M542.23,249.81v15.73a9.68,9.68,0,0,1-9.68,9.68H527.1a9.68,9.68,0,0,1-9.68-9.68V221.38a9.68,9.68,0,0,1,9.68-9.68" style="fill:none;stroke:#484f59;stroke-miterlimit:10;stroke-width:3px"/><rect x="532.94" y="194.25" width="19.39" height="54.3" rx="4.85" ry="4.85" style="fill:#cdd5d7;stroke:#484f59;stroke-miterlimit:10;stroke-width:3px"/><rect x="558.15" y="192.31" width="42.18" height="30.06" style="fill:#cdd5d7;stroke:#484f59;stroke-miterlimit:10;stroke-width:3px"/><rect x="563.97" y="198.13" width="30.55" height="18.42" style="fill:#ffc400;stroke:#484f59;stroke-miterlimit:10;stroke-width:3px"/><line x1="556.7" y1="228.19" x2="565.55" y2="228.19" style="fill:none;stroke:#484f59;stroke-miterlimit:10;stroke-width:3px"/><line x1="568.79" y1="228.19" x2="577.64" y2="228.19" style="fill:none;stroke:#484f59;stroke-miterlimit:10;stroke-width:3px"/><line x1="580.88" y1="228.19" x2="589.73" y2="228.19" style="fill:none;stroke:#484f59;stroke-miterlimit:10;stroke-width:3px"/><line x1="592.97" y1="228.19" x2="601.82" y2="228.19" style="fill:none;stroke:#484f59;stroke-miterlimit:10;stroke-width:3px"/><line x1="556.7" y1="234.21" x2="565.55" y2="234.21" style="fill:none;stroke:#484f59;stroke-miterlimit:10;stroke-width:3px"/><line x1="568.79" y1="234.21" x2="577.64" y2="234.21" style="fill:none;stroke:#484f59;stroke-miterlimit:10;stroke-width:3px"/><line x1="580.88" y1="234.21" x2="589.73" y2="234.21" style="fill:none;stroke:#484f59;stroke-miterlimit:10;stroke-width:3px"/><line x1="592.97" y1="234.21" x2="601.82" y2="234.21" style="fill:none;stroke:#484f59;stroke-miterlimit:10;stroke-width:3px"/><line x1="556.7" y1="240.23" x2="565.55" y2="240.23" style="fill:none;stroke:#484f59;stroke-miterlimit:10;stroke-width:3px"/><line x1="568.79" y1="240.23" x2="577.64" y2="240.23" style="fill:none;stroke:#484f59;stroke-miterlimit:10;stroke-width:3px"/><line x1="580.88" y1="240.23" x2="589.73" y2="240.23" style="fill:none;stroke:#484f59;stroke-miterlimit:10;stroke-width:3px"/><line x1="592.97" y1="240.23" x2="601.82" y2="240.23" style="fill:none;stroke:#484f59;stroke-miterlimit:10;stroke-width:3px"/><line x1="556.7" y1="246.25" x2="565.55" y2="246.25" style="fill:none;stroke:#484f59;stroke-miterlimit:10;stroke-width:3px"/><line x1="568.79" y1="246.25" x2="577.64" y2="246.25" style="fill:none;stroke:#484f59;stroke-miterlimit:10;stroke-width:3px"/><line x1="580.88" y1="246.25" x2="589.73" y2="246.25" style="fill:none;stroke:#484f59;stroke-miterlimit:10;stroke-width:3px"/><line x1="592.97" y1="246.25" x2="601.82" y2="246.25" style="fill:none;stroke:#484f59;stroke-miterlimit:10;stroke-width:3px"/><path d="M471.81,39.87a27.49,27.49,0,0,0-21,45.3l-6.41,12.16,11.66-7.39a27.5,27.5,0,1,0,15.72-50.07Z" style="fill:#ffc400;stroke:#484f59;stroke-linejoin:round;stroke-width:3px"/><path d="M479.9,78.46a14.18,14.18,0,1,1,2.42-20.3" style="fill:none;stroke:#484f59;stroke-linejoin:round;stroke-width:3px"/><path d="M475.82,60.53s-5.83-1.33-9.2,1.84c-4.06,3.81-3.18,9.74.61,10.83s5.16-1.79,5.59-3S475.82,60.53,475.82,60.53Z" style="fill:none;stroke:#484f59;stroke-width:3px"/><path d="M475.42,62s-2.5,8.75-.77,10.33c5.06,4.6,16.71-7.36,5.37-16.41" style="fill:none;stroke:#484f59;stroke-linejoin:round;stroke-width:3px"/><rect x="351.06" y="232.12" width="82.01" height="37.03" rx="1.32" ry="1.32" style="fill:#e5e8ec;stroke:#484f59;stroke-linecap:round;stroke-width:3px"/><line x1="355.24" y1="238.61" x2="360.49" y2="238.61" style="fill:#fff;stroke:#484f59;stroke-miterlimit:10;stroke-width:3px"/><line x1="362.83" y1="238.61" x2="368.08" y2="238.61" style="fill:#fff;stroke:#484f59;stroke-miterlimit:10;stroke-width:3px"/><line x1="370.42" y1="238.61" x2="375.67" y2="238.61" style="fill:#fff;stroke:#484f59;stroke-miterlimit:10;stroke-width:3px"/><line x1="378.01" y1="238.61" x2="383.26" y2="238.61" style="fill:#fff;stroke:#484f59;stroke-miterlimit:10;stroke-width:3px"/><line x1="385.6" y1="238.61" x2="390.85" y2="238.61" style="fill:#fff;stroke:#484f59;stroke-miterlimit:10;stroke-width:3px"/><line x1="393.2" y1="238.61" x2="398.44" y2="238.61" style="fill:#fff;stroke:#484f59;stroke-miterlimit:10;stroke-width:3px"/><line x1="400.79" y1="238.61" x2="406.03" y2="238.61" style="fill:#fff;stroke:#484f59;stroke-miterlimit:10;stroke-width:3px"/><line x1="408.38" y1="238.61" x2="413.63" y2="238.61" style="fill:#fff;stroke:#484f59;stroke-miterlimit:10;stroke-width:3px"/><line x1="415.97" y1="238.61" x2="421.22" y2="238.61" style="fill:#fff;stroke:#484f59;stroke-miterlimit:10;stroke-width:3px"/><line x1="423.56" y1="238.61" x2="428.81" y2="238.61" style="fill:#fff;stroke:#484f59;stroke-miterlimit:10;stroke-width:3px"/><line x1="355.24" y1="244.73" x2="360.49" y2="244.73" style="fill:#fff;stroke:#484f59;stroke-miterlimit:10;stroke-width:3px"/><line x1="362.83" y1="244.73" x2="368.08" y2="244.73" style="fill:#fff;stroke:#484f59;stroke-miterlimit:10;stroke-width:3px"/><line x1="370.42" y1="244.73" x2="375.67" y2="244.73" style="fill:#fff;stroke:#484f59;stroke-miterlimit:10;stroke-width:3px"/><line x1="378.01" y1="244.73" x2="383.26" y2="244.73" style="fill:#fff;stroke:#484f59;stroke-miterlimit:10;stroke-width:3px"/><line x1="385.6" y1="244.73" x2="390.85" y2="244.73" style="fill:#fff;stroke:#484f59;stroke-miterlimit:10;stroke-width:3px"/><line x1="393.2" y1="244.73" x2="398.44" y2="244.73" style="fill:#fff;stroke:#484f59;stroke-miterlimit:10;stroke-width:3px"/><line x1="400.79" y1="244.73" x2="406.03" y2="244.73" style="fill:#fff;stroke:#484f59;stroke-miterlimit:10;stroke-width:3px"/><line x1="408.38" y1="244.73" x2="413.63" y2="244.73" style="fill:#fff;stroke:#484f59;stroke-miterlimit:10;stroke-width:3px"/><line x1="415.97" y1="244.73" x2="421.22" y2="244.73" style="fill:#fff;stroke:#484f59;stroke-miterlimit:10;stroke-width:3px"/><line x1="423.56" y1="244.73" x2="428.81" y2="244.73" style="fill:#fff;stroke:#484f59;stroke-miterlimit:10;stroke-width:3px"/><line x1="355.24" y1="250.84" x2="360.49" y2="250.84" style="fill:#fff;stroke:#484f59;stroke-miterlimit:10;stroke-width:3px"/><line x1="362.83" y1="250.84" x2="368.08" y2="250.84" style="fill:#fff;stroke:#484f59;stroke-miterlimit:10;stroke-width:3px"/><line x1="370.42" y1="250.84" x2="375.67" y2="250.84" style="fill:#fff;stroke:#484f59;stroke-miterlimit:10;stroke-width:3px"/><line x1="378.01" y1="250.84" x2="383.26" y2="250.84" style="fill:#fff;stroke:#484f59;stroke-miterlimit:10;stroke-width:3px"/><line x1="385.6" y1="250.84" x2="390.85" y2="250.84" style="fill:#fff;stroke:#484f59;stroke-miterlimit:10;stroke-width:3px"/><line x1="393.2" y1="250.84" x2="398.44" y2="250.84" style="fill:#fff;stroke:#484f59;stroke-miterlimit:10;stroke-width:3px"/><line x1="400.79" y1="250.84" x2="406.03" y2="250.84" style="fill:#fff;stroke:#484f59;stroke-miterlimit:10;stroke-width:3px"/><line x1="408.38" y1="250.84" x2="413.63" y2="250.84" style="fill:#fff;stroke:#484f59;stroke-miterlimit:10;stroke-width:3px"/><line x1="415.97" y1="250.84" x2="421.22" y2="250.84" style="fill:#fff;stroke:#484f59;stroke-miterlimit:10;stroke-width:3px"/><line x1="423.56" y1="250.84" x2="428.81" y2="250.84" style="fill:#fff;stroke:#484f59;stroke-miterlimit:10;stroke-width:3px"/><line x1="355.24" y1="256.96" x2="360.49" y2="256.96" style="fill:#fff;stroke:#484f59;stroke-miterlimit:10;stroke-width:3px"/><line x1="362.83" y1="256.96" x2="368.08" y2="256.96" style="fill:#fff;stroke:#484f59;stroke-miterlimit:10;stroke-width:3px"/><line x1="370.42" y1="256.96" x2="375.67" y2="256.96" style="fill:#fff;stroke:#484f59;stroke-miterlimit:10;stroke-width:3px"/><line x1="378.01" y1="256.96" x2="383.26" y2="256.96" style="fill:#fff;stroke:#484f59;stroke-miterlimit:10;stroke-width:3px"/><line x1="385.6" y1="256.96" x2="390.85" y2="256.96" style="fill:#fff;stroke:#484f59;stroke-miterlimit:10;stroke-width:3px"/><line x1="393.2" y1="256.96" x2="398.44" y2="256.96" style="fill:#fff;stroke:#484f59;stroke-miterlimit:10;stroke-width:3px"/><line x1="400.79" y1="256.96" x2="406.03" y2="256.96" style="fill:#fff;stroke:#484f59;stroke-miterlimit:10;stroke-width:3px"/><line x1="408.38" y1="256.96" x2="413.63" y2="256.96" style="fill:#fff;stroke:#484f59;stroke-miterlimit:10;stroke-width:3px"/><line x1="415.97" y1="256.96" x2="421.22" y2="256.96" style="fill:#fff;stroke:#484f59;stroke-miterlimit:10;stroke-width:3px"/><line x1="423.56" y1="256.96" x2="428.81" y2="256.96" style="fill:#fff;stroke:#484f59;stroke-miterlimit:10;stroke-width:3px"/><line x1="355.24" y1="263.07" x2="360.49" y2="263.07" style="fill:#fff;stroke:#484f59;stroke-miterlimit:10;stroke-width:3px"/><line x1="362.83" y1="263.07" x2="368.08" y2="263.07" style="fill:#fff;stroke:#484f59;stroke-miterlimit:10;stroke-width:3px"/><line x1="370.42" y1="263.07" x2="375.67" y2="263.07" style="fill:#fff;stroke:#484f59;stroke-miterlimit:10;stroke-width:3px"/><line x1="378.01" y1="263.07" x2="406.1" y2="263.07" style="fill:#fff;stroke:#484f59;stroke-miterlimit:10;stroke-width:3px"/><line x1="408.38" y1="263.07" x2="413.63" y2="263.07" style="fill:#fff;stroke:#484f59;stroke-miterlimit:10;stroke-width:3px"/><line x1="415.97" y1="263.07" x2="421.22" y2="263.07" style="fill:#fff;stroke:#484f59;stroke-miterlimit:10;stroke-width:3px"/><line x1="423.56" y1="263.07" x2="428.81" y2="263.07" style="fill:#fff;stroke:#484f59;stroke-miterlimit:10;stroke-width:3px"/><path d="M460,239c0-3.8-.9-4.57-2.12-5.61-1-.83-3.08-1.12-4.68-1.21a19.55,19.55,0,0,0-2.12,0c-1.6.09-3.7.38-4.68,1.21-1.21,1-2.12,1.81-2.12,5.61s-.25,14.76-.19,14.95-.81,8.16,7.41,8.16h1.26c8.12-.1,7.35-8,7.41-8.16S460,242.77,460,239Z" style="fill:#fff;stroke:#484f59;stroke-miterlimit:10;stroke-width:3px"/><rect x="189.26" y="166.55" width="28.38" height="55.87" rx="1.77" ry="1.77" style="fill:#f7f8fc;stroke:#484f59;stroke-linejoin:round;stroke-width:3px"/><rect x="189.26" y="174.09" width="28.38" height="40.35" style="fill:#ffc400;stroke:#484f59;stroke-width:3px"/><line x1="198.71" y1="170.23" x2="208.19" y2="170.23" style="fill:none;stroke:#484f59;stroke-linejoin:round;stroke-width:3px"/><line x1="202.58" y1="217.8" x2="204.32" y2="217.8" style="fill:none;stroke:#484f59;stroke-linejoin:round;stroke-width:3px"/><line x1="142.75" y1="192.31" x2="141.25" y2="192.31" style="fill:none;stroke:#484f59;stroke-miterlimit:10;stroke-width:3px"/><line x1="138.26" y1="192.31" x2="79.81" y2="192.31" style="fill:none;stroke:#484f59;stroke-miterlimit:10;stroke-width:3px;stroke-dasharray:2.99714994430542,2.99714994430542"/><polyline points="78.31 192.31 76.81 192.31 76.81 190.81" style="fill:none;stroke:#484f59;stroke-miterlimit:10;stroke-width:3px"/><line x1="76.81" y1="187.9" x2="76.81" y2="125.44" style="fill:none;stroke:#484f59;stroke-miterlimit:10;stroke-width:3px;stroke-dasharray:2.9051899909973145,2.9051899909973145"/><line x1="76.81" y1="123.99" x2="76.81" y2="122.49" style="fill:none;stroke:#484f59;stroke-miterlimit:10;stroke-width:3px"/><path d="M76.92,151.6a38.69,38.69,0,0,1-22.84-7.44l9.32-19.22a.6.6,0,0,0-.14-.7l-11.51-10.4a.6.6,0,0,0-.95.2l-4,9.1a.6.6,0,0,0,0,.52l3.52,6.81-.07,8.61a.58.58,0,0,0,.05.25l1.22,2.77a38.78,38.78,0,0,1-13.42-27.7l.67.81a.59.59,0,0,0,.21.16L46.76,119A.62.62,0,0,0,47,119a.6.6,0,0,0,.47-1l-4.69-6,.84-2.41,4.84-.46a.58.58,0,0,0,.34-.15l9.45-8.46a.59.59,0,0,0,.06-.83l-5.5-6.67a.6.6,0,0,0-1,.07l-2.19,3.63-2-3.19,3.66-6.71,3.61-6.23a38.78,38.78,0,0,1,46.69,2.06C97.4,85,93.7,87,93.71,87l-9.25,2.89L78.3,87.69l-6.77,6.15,2.17,3.34-5,2.92.58,3.35,6.16,1,3.95,2.17-2.62.64-2.58-1.69-5.28,1.24-3.19,8.85,2.74,4.79,4.67.19,1.61,9.21L78,137.36l4.39-2.82,7.16-17.69-4.29-1.7-.45-2.39,3,1.16,2.37.59,2.42-3.08,3.36,6,5.29-3.57,4.09,8L112,108.33l2.64-4.91A38.85,38.85,0,0,1,76.92,151.6Z" style="fill:#fff"/><path d="M57.3,96.41h0c.06,0,.17-.09.11-.16h0C57.36,96.25,57.25,96.35,57.3,96.41Z" style="fill:#484f59"/><path d="M114.2,101.75l-3.25,6-5.62,11.45-3.61-7.12-5.33,3.6-3.6-6.43-3,3.88-1.54-.38-4.94-1.92,1,5.15L88,117.51l-6.56,16.22-2.9,1.87-2.67-6L74.1,119.49l-5-.2L67,115.55l2.78-7.72,4.15-1,2.58,1.7,6.11-1.5-6.73-3.69-5.62-1L70,100.72l5.41-3.14L73.08,94l5.49-5,5.86,2,9.73-3s4-2.13,8.44-4.46A38.93,38.93,0,0,1,114.2,101.75Z" style="fill:#e5e8ec"/><path d="M52.51,82.51l-2.22,3.82-3.84,7a.6.6,0,0,0,0,.6l2.7,4.31a.68.68,0,0,0,.51.28.6.6,0,0,0,.51-.29l2.26-3.74L57,100.1,48.17,108l-5,.48a.6.6,0,0,0-.51.4L41.56,112a.6.6,0,0,0,.09.57L45,116.85l-5.42-2.49-1.54-1.87A38.81,38.81,0,0,1,52.51,82.51Z" style="fill:#e5e8ec"/><path d="M51.43,130.06,48,123.36l3.58-8.09,10.57,9.55-8.87,18.29L51.43,139l.07-8.63A.63.63,0,0,0,51.43,130.06Z" style="fill:#e5e8ec"/><path d="M60.34,93.36l-4.4-9.17c6.34-3.23,10.6-4,12.24-4.12l-1.87,8.46Z" style="fill:#e5e8ec"/><path d="M77.35,74.73A37.85,37.85,0,1,1,39.5,112.59,37.9,37.9,0,0,1,77.35,74.73m0-3a40.85,40.85,0,1,0,40.86,40.86A40.9,40.9,0,0,0,77.35,71.73Z" style="fill:#484f59"/><path d="M54.16,84c-.05,0-.16.09-.1.15h0c.05,0,.15-.09.1-.16Z" style="fill:#484f59"/><path d="M58.36,96.54c-.05,0-.16.09-.11.16h0c.06,0,.16-.09.11-.16Z" style="fill:#484f59"/><polygon points="52.46 114.09 48.53 122.96 52.02 129.73 51.95 138.26 54.28 143.56 63.67 124.22 52.46 114.09" style="fill:none;stroke:#484f59;stroke-linecap:round;stroke-linejoin:round;stroke-width:3px"/><polyline points="55.66 80.72 51.93 87.16 48.2 94 50.83 98.2 53.45 93.85 58.81 100.35 49.61 108.58 44.52 109.07 43.47 112.07 48.23 118.13 40.64 114.64 38.59 112.15" style="fill:none;stroke:#484f59;stroke-linejoin:round;stroke-width:3px"/><path d="M56.16,84.53,61,94.64l6.54-5.29,2-9.19S64.65,80.11,56.16,84.53Z" style="fill:none;stroke:#484f59;stroke-miterlimit:10;stroke-width:3px"/><path d="M103.24,83.09C98.47,85.6,93.88,88,93.88,88l-9.19,2.87-5.86-2.05-6,5.42L75,97.64,70,100.59l.42,2.46,5.69.94,5.24,2.87-4.25,1-2.51-1.65L70,107.32,67,115.39l2.38,4.15,4.69.19,1.65,9.43,2.91,6.54,3.55-2.28,6.68-16.51L85,115.36l-.69-3.67,3.84,1.49,1.94.48,2.66-3.39,3.39,6.05,5.17-3.49,3.75,7.38,6-12.2,3.75-7" style="fill:none;stroke:#484f59;stroke-miterlimit:10;stroke-width:3px"/><circle cx="147.6" cy="192.31" r="5.82" style="fill:#cdd5d7;stroke:#484f59;stroke-miterlimit:10;stroke-width:3px"/><path d="M104,57.33A16.61,16.61,0,0,0,87.38,73.94c0,9.18,16.61,23.35,16.61,23.35s16.62-14.17,16.62-23.35A16.61,16.61,0,0,0,104,57.33Zm0,24.86a8.25,8.25,0,1,1,8.25-8.25A8.25,8.25,0,0,1,104,82.19Z" style="fill:#f0787a;stroke:#484f59;stroke-width:3px"/><circle cx="104" cy="73.94" r="8.25" style="fill:#f6fafb;stroke:#484f59;stroke-miterlimit:10;stroke-width:3px"/><circle cx="132.26" cy="244.19" r="17.07" style="fill:#f0787a;stroke:#484f59;stroke-miterlimit:10;stroke-width:3px"/><polygon points="139.9 244.19 134.03 247.58 128.15 250.98 128.15 244.19 128.15 237.4 134.03 240.8 139.9 244.19" style="fill:#fff;stroke:#484f59;stroke-miterlimit:10;stroke-width:3px"/><rect x="353.41" y="85.72" width="76.12" height="44.77" style="fill:#fff;stroke:#484f59;stroke-miterlimit:10;stroke-width:3px"/><rect x="353.41" y="85.72" width="76.12" height="9.21" style="fill:#cdd5d7;stroke:#484f59;stroke-miterlimit:10;stroke-width:3px"/><line x1="356.56" y1="90.4" x2="385.09" y2="90.4" style="fill:none;stroke:#484f59;stroke-miterlimit:10;stroke-width:3px"/><line x1="364.32" y1="105.59" x2="392.84" y2="105.59" style="fill:none;stroke:#484f59;stroke-miterlimit:10;stroke-width:3px"/><line x1="364.32" y1="112.38" x2="417.41" y2="112.38" style="fill:none;stroke:#484f59;stroke-miterlimit:10;stroke-width:3px"/><line x1="364.32" y1="119.17" x2="417.41" y2="119.17" style="fill:none;stroke:#484f59;stroke-miterlimit:10;stroke-width:3px"/><line x1="423.07" y1="90.4" x2="426.06" y2="90.4" style="fill:none;stroke:#484f59;stroke-miterlimit:10;stroke-width:3px"/><path d="M564.64,148.73v-18a19.3,19.3,0,0,1,19.3-19.3h7.35a19.3,19.3,0,0,1,19.3,19.3v18" style="fill:none;stroke:#484f59;stroke-miterlimit:10;stroke-width:3px"/><path d="M567.14,131.82h-1.47a6.18,6.18,0,0,0-6.18,6.17v7.65a6.18,6.18,0,0,0,6.18,6.17h1.47Z" style="fill:#f6fafb;stroke:#484f59;stroke-miterlimit:10;stroke-width:3px"/><rect x="564.79" y="130.35" width="6.47" height="23.06" rx="2.08" ry="2.08" style="fill:#f0787a;stroke:#484f59;stroke-miterlimit:10;stroke-width:3px"/><path d="M608.27,151.94h1.47a6.17,6.17,0,0,0,6.18-6.17v-7.65a6.17,6.17,0,0,0-6.18-6.17h-1.47Z" style="fill:#f6fafb;stroke:#484f59;stroke-miterlimit:10;stroke-width:3px"/><path d="M606.23,130.35h2.32a2.07,2.07,0,0,1,2.07,2.07v18.91a2.08,2.08,0,0,1-2.08,2.08h-2.32a2.08,2.08,0,0,1-2.08-2.08V132.43A2.07,2.07,0,0,1,606.23,130.35Z" style="fill:#f0787a;stroke:#484f59;stroke-miterlimit:10;stroke-width:3px"/><line x1="29.44" y1="191.21" x2="49.91" y2="191.21" style="fill:none;stroke:#484f59;stroke-width:3px"/><line x1="37.24" y1="183.67" x2="57.71" y2="183.67" style="fill:none;stroke:#484f59;stroke-width:3px"/><line x1="26.51" y1="183.67" x2="33.34" y2="183.67" style="fill:none;stroke:#484f59;stroke-width:3px"/><line x1="18.72" y1="191.21" x2="25.54" y2="191.21" style="fill:none;stroke:#484f59;stroke-width:3px"/><rect x="50.36" y="175.85" width="54.6" height="31.44" style="fill:#ffc400;stroke:#484f59;stroke-miterlimit:10;stroke-width:3px"/><path d="M104.91,175.82H50.35l6.82,6.1L62,186.19,64,188l6.37,5.69,5.24,4.68a3.14,3.14,0,0,0,4.07,0l5.23-4.68L91.27,188l2-1.82,4.78-4.28Z" style="fill:#cdd5d7"/><path d="M104.91,175.82H50.35l6.82,5.82L62,185.72l2,1.73,6.37,5.43,5.24,4.46a3.26,3.26,0,0,0,4.07,0l5.23-4.46,6.37-5.43,2-1.73,4.78-4.08Z" style="fill:#ffdc69;stroke:#484f59;stroke-linejoin:round;stroke-width:3px"/><line x1="50.56" y1="207.08" x2="68.74" y2="191.38" style="fill:none;stroke:#484f59;stroke-miterlimit:10;stroke-width:3px"/><line x1="104.91" y1="207.08" x2="86.74" y2="191.38" style="fill:none;stroke:#484f59;stroke-miterlimit:10;stroke-width:3px"/><rect x="511.1" y="71.86" width="54.6" height="31.44" style="fill:#e5e8ec;stroke:#484f59;stroke-miterlimit:10;stroke-width:3px"/><path d="M511.13,71.83H565.7l-6.82,6.1-4.78,4.28-2,1.82-6.37,5.69-5.24,4.68a3.14,3.14,0,0,1-4.07,0l-5.24-4.68L524.78,84l-2-1.82L518,77.92Z" style="fill:#cdd5d7"/><path d="M511.13,71.83H565.7l-6.82,5.82-4.78,4.08-2,1.74-6.37,5.43-5.24,4.47a3.25,3.25,0,0,1-4.07,0l-5.24-4.47-6.37-5.43-2-1.74L518,77.64Z" style="fill:#f7f8fc;stroke:#484f59;stroke-linejoin:round;stroke-width:3px"/><line x1="565.49" y1="103.08" x2="547.31" y2="87.39" style="fill:none;stroke:#484f59;stroke-miterlimit:10;stroke-width:3px"/><line x1="511.14" y1="103.08" x2="529.31" y2="87.39" style="fill:none;stroke:#484f59;stroke-miterlimit:10;stroke-width:3px"/><line x1="444.69" y1="127.83" x2="444.69" y2="122.41" style="fill:none;stroke:#484f59;stroke-width:3px"/><line x1="439.58" y1="131.15" x2="434.89" y2="128.44" style="fill:none;stroke:#484f59;stroke-width:3px"/><line x1="439.9" y1="137.23" x2="435.2" y2="139.94" style="fill:none;stroke:#484f59;stroke-width:3px"/><line x1="445.33" y1="140" x2="445.33" y2="145.42" style="fill:none;stroke:#484f59;stroke-width:3px"/><line x1="450.44" y1="136.68" x2="455.13" y2="139.39" style="fill:none;stroke:#484f59;stroke-width:3px"/><line x1="450.12" y1="130.6" x2="454.82" y2="127.88" style="fill:none;stroke:#484f59;stroke-width:3px"/><line x1="461.93" y1="148.9" x2="469.66" y2="156.63" style="fill:none;stroke:#484f59;stroke-width:3px"/><polygon points="447.8 134.78 470.52 144.39 461.4 148.38 457.41 157.49 447.8 134.78" style="fill:#fff;stroke:#484f59;stroke-width:3px"/><path d="M660.25,175.88a19.82,19.82,0,1,1,5.8-14A19.73,19.73,0,0,1,660.25,175.88Z" style="fill:#cdd5d7"/><g style="clip-path:url(#clip-path)"><path d="M659.63,185.42V170a5.42,5.42,0,0,0-3.5-4.83,36.14,36.14,0,0,0-20.66,0A5.43,5.43,0,0,0,632,170v15.39Z" style="fill:#fff;stroke:#484f59;stroke-width:3px"/><circle cx="645.8" cy="156.43" r="7.02" style="fill:#fff"/><circle cx="645.8" cy="156.43" r="7.02" style="fill:none;stroke:#484f59;stroke-width:3px"/><line x1="638.33" y1="171.22" x2="638.33" y2="185.16" style="fill:none;stroke:#484f59;stroke-width:3px"/><line x1="653.27" y1="171.22" x2="653.27" y2="185.16" style="fill:none;stroke:#484f59;stroke-width:3px"/></g><path d="M660.25,175.88a19.82,19.82,0,1,1,5.8-14A19.73,19.73,0,0,1,660.25,175.88Z" style="fill:none;stroke:#484f59;stroke-width:3px"/><path d="M689,90.59a31.86,31.86,0,0,0-24.29,52.5l-7.43,14.08,13.51-8.56a31.87,31.87,0,1,0,18.21-58Z" style="fill:#ffc400;stroke:#484f59;stroke-linejoin:round;stroke-width:3px"/><circle cx="688.63" cy="122.43" r="25.99" style="fill:#ffdc69"/><path d="M693.67,140.08h-6.79v-6.49h6.79Zm0-6.44h-6.79l0-6.88c.46-3.58,2.72-5.33,4.36-6.61s2.69-2.09,2.69-5c0-.48-.18-4.74-6.29-4.74-4.36,0-6,3.66-6,7.08l-6.79-.13c.15-8.09,5.43-13.74,12.84-13.74,9.59,0,13.08,6.9,13.08,11.53,0,6.25-3.19,8.73-5.31,10.37-1.26,1-1.64,1.33-1.77,2Z" style="fill:#fff;stroke:#484f59;stroke-miterlimit:10;stroke-width:3px"/><rect x="316.36" y="85.72" width="27.09" height="34.89" style="fill:#e5e8ec;stroke:#484f59;stroke-width:3px"/><path d="M342.78,120.61V112.7a5,5,0,0,0-3.26-4.5,33.66,33.66,0,0,0-19.24,0,5.06,5.06,0,0,0-3.26,4.5v7.91Z" style="fill:#ffc400;stroke:#484f59;stroke-width:3px"/><circle cx="329.91" cy="100.03" r="6.54" style="fill:#ffc400"/><circle cx="329.91" cy="100.03" r="6.54" style="fill:none;stroke:#484f59;stroke-width:3px"/><line x1="322.95" y1="113.81" x2="322.95" y2="120.36" style="fill:none;stroke:#484f59;stroke-width:3px"/><line x1="336.87" y1="113.81" x2="336.87" y2="120.36" style="fill:none;stroke:#484f59;stroke-width:3px"/><circle cx="568.94" cy="68.56" r="16.01" style="fill:#f0787a;stroke:#484f59;stroke-miterlimit:10;stroke-width:3px"/><polyline points="568.91 73.82 568.91 61.76 564.77 66.06" style="fill:none;stroke:#484f59;stroke-linejoin:bevel;stroke-width:3px"/><line x1="566.93" y1="73.78" x2="570.83" y2="73.78" style="fill:none;stroke:#484f59;stroke-miterlimit:10;stroke-width:3px"/><line x1="687" y1="177.52" x2="679" y2="185.52" style="fill:none;stroke:#484f59;stroke-width:3px"/><line x1="687" y1="185.52" x2="679" y2="177.52" style="fill:none;stroke:#484f59;stroke-width:3px"/><line x1="703.25" y1="211.7" x2="697.71" y2="217.23" style="fill:none;stroke:#484f59;stroke-width:3px"/><line x1="703.24" y1="217.23" x2="697.71" y2="211.7" style="fill:none;stroke:#484f59;stroke-width:3px"/><line x1="477.02" y1="242.29" x2="471.48" y2="247.82" style="fill:none;stroke:#484f59;stroke-width:3px"/><line x1="477.02" y1="247.82" x2="471.48" y2="242.29" style="fill:none;stroke:#484f59;stroke-width:3px"/><line x1="332.82" y1="140.27" x2="332.82" y2="141.77" style="fill:none;stroke:#484f59;stroke-miterlimit:10;stroke-width:3px"/><line x1="332.82" y1="144.27" x2="332.82" y2="153.03" style="fill:none;stroke:#484f59;stroke-miterlimit:10;stroke-width:3px;stroke-dasharray:2.503119945526123,2.503119945526123"/><polyline points="332.82 154.28 332.82 155.78 331.32 155.78" style="fill:none;stroke:#484f59;stroke-miterlimit:10;stroke-width:3px"/><line x1="328.37" y1="155.78" x2="282.78" y2="155.78" style="fill:none;stroke:#484f59;stroke-miterlimit:10;stroke-width:3px;stroke-dasharray:2.941809892654419,2.941809892654419"/><polyline points="281.31 155.78 279.81 155.78 279.81 157.28" style="fill:none;stroke:#484f59;stroke-miterlimit:10;stroke-width:3px"/><line x1="279.81" y1="160.36" x2="279.81" y2="189.59" style="fill:none;stroke:#484f59;stroke-miterlimit:10;stroke-width:3px;stroke-dasharray:3.0771501064300537,3.0771501064300537"/><polyline points="279.81 191.13 279.81 192.63 278.31 192.63" style="fill:none;stroke:#484f59;stroke-miterlimit:10;stroke-width:3px"/><line x1="274.89" y1="192.63" x2="269.76" y2="192.63" style="fill:none;stroke:#484f59;stroke-miterlimit:10;stroke-width:3px;stroke-dasharray:3.417639970779419,3.417639970779419"/><line x1="268.05" y1="192.63" x2="266.55" y2="192.63" style="fill:none;stroke:#484f59;stroke-miterlimit:10;stroke-width:3px"/><circle cx="332.17" cy="134.77" r="5.82" style="fill:#cdd5d7;stroke:#484f59;stroke-miterlimit:10;stroke-width:3px"/><circle cx="261.06" cy="192.31" r="5.82" style="fill:#cdd5d7;stroke:#484f59;stroke-miterlimit:10;stroke-width:3px"/><line x1="337.34" y1="223.71" x2="279.81" y2="223.71" style="fill:none;stroke:#484f59;stroke-miterlimit:10;stroke-width:3px"/><line x1="473.1" y1="223.71" x2="438.19" y2="223.71" style="fill:none;stroke:#484f59;stroke-miterlimit:10;stroke-width:3px"/><line x1="353.18" y1="223.71" x2="341.54" y2="223.71" style="fill:none;stroke:#484f59;stroke-miterlimit:10;stroke-width:3px"/><line x1="275.23" y1="223.71" x2="268.86" y2="223.71" style="fill:none;stroke:#484f59;stroke-miterlimit:10;stroke-width:3px"/><line x1="493.14" y1="223.71" x2="486.78" y2="223.71" style="fill:none;stroke:#484f59;stroke-miterlimit:10;stroke-width:3px"/><polyline points="160.07 137.1 166.92 130.25 160.07 123.39" style="fill:none;stroke:#484f59;stroke-miterlimit:10;stroke-width:3px"/><line x1="166.03" y1="130.25" x2="137.37" y2="130.25" style="fill:none;stroke:#484f59;stroke-miterlimit:10;stroke-width:3px"/><polyline points="144.22 109.17 137.37 116.02 144.22 122.88" style="fill:none;stroke:#484f59;stroke-miterlimit:10;stroke-width:3px"/><line x1="138.26" y1="116.02" x2="166.92" y2="116.02" style="fill:none;stroke:#484f59;stroke-miterlimit:10;stroke-width:3px"/><line x1="483.12" y1="244.67" x2="484.62" y2="244.67" style="fill:none;stroke:#484f59;stroke-miterlimit:10;stroke-width:3px"/><line x1="487.3" y1="244.67" x2="507.43" y2="244.67" style="fill:none;stroke:#484f59;stroke-miterlimit:10;stroke-width:3px;stroke-dasharray:2.6835899353027344,2.6835899353027344"/><line x1="508.77" y1="244.67" x2="510.27" y2="244.67" style="fill:none;stroke:#484f59;stroke-miterlimit:10;stroke-width:3px"/><line x1="618.88" y1="83.7" x2="620.38" y2="83.7" style="fill:none;stroke:#484f59;stroke-miterlimit:10;stroke-width:3px"/><line x1="623.06" y1="83.7" x2="643.19" y2="83.7" style="fill:none;stroke:#484f59;stroke-miterlimit:10;stroke-width:3px;stroke-dasharray:2.6835899353027344,2.6835899353027344"/><line x1="644.53" y1="83.7" x2="646.03" y2="83.7" style="fill:none;stroke:#484f59;stroke-miterlimit:10;stroke-width:3px"/></g></svg>