<svg id="Layer_1" data-name="Layer 1" xmlns="http://www.w3.org/2000/svg" viewBox="0 0 139 200"><title>Artboard 1</title><circle cx="69.5" cy="131.71" r="67.29" style="fill:#f0787a"/><path d="M114.68,28.53a14.31,14.31,0,0,0-2.91-4.59L92.93,5.1a14.12,14.12,0,0,0-4.58-2.89A14,14,0,0,0,83,1H28.93a5.58,5.58,0,0,0-4.11,1.69,5.59,5.59,0,0,0-1.7,4.11v96.62a5.78,5.78,0,0,0,5.82,5.79h81.15a5.78,5.78,0,0,0,5.8-5.79V33.84A14.22,14.22,0,0,0,114.68,28.53ZM85,9.21a6.54,6.54,0,0,1,2.47,1.33l18.9,18.9a6.54,6.54,0,0,1,1.33,2.47H85Zm23.19,92.27H30.87V8.72H77.23V33.84a5.76,5.76,0,0,0,5.8,5.8h25.12Z" style="fill:#406eb5"/><path d="M108.15,39.64v61.84H30.87V8.72H77.23V33.84a5.76,5.76,0,0,0,5.8,5.8Z" style="fill:#fff"/><path d="M93.93,64.42H46a3.09,3.09,0,1,1,0-6.19h48a3.09,3.09,0,0,1,0,6.19Z" style="fill:#406eb5"/><path d="M93.93,75.25H46a3.09,3.09,0,1,1,0-6.19h48a3.09,3.09,0,0,1,0,6.19Z" style="fill:#406eb5"/><path d="M93.93,86.08H46a3.09,3.09,0,1,1,0-6.19h48a3.09,3.09,0,0,1,0,6.19Z" style="fill:#406eb5"/><path d="M92.37,144.34,90.06,142a3.94,3.94,0,0,0-2.81-1.14A3.79,3.79,0,0,0,84.48,142l-9.06,9.06v-21.7a4,4,0,0,0-3.94-3.95H67.53a4,4,0,0,0-3.95,3.95v21.7L54.52,142a3.78,3.78,0,0,0-2.78-1.14A4,4,0,0,0,48.94,142l-2.28,2.31a3.81,3.81,0,0,0-1.17,2.81,3.66,3.66,0,0,0,1.17,2.78L66.73,170a3.78,3.78,0,0,0,2.78,1.14A4,4,0,0,0,72.31,170l20.06-20.09a3.78,3.78,0,0,0,1.14-2.78,4,4,0,0,0-1.14-2.81" style="fill:#fff"/></svg>