<svg id="web_development" data-name="web development" xmlns="http://www.w3.org/2000/svg" viewBox="0 0 600 500"><title>Artboard 2</title><rect x="83.69" y="144.96" width="26.92" height="26.92" rx="3.15" ry="3.15" style="fill:#fff"/><rect x="117.35" y="144.96" width="26.92" height="26.92" rx="3.15" ry="3.15" style="fill:#f9d657"/><rect x="151.01" y="144.96" width="26.92" height="26.92" rx="3.15" ry="3.15" style="fill:#fff"/><rect x="184.66" y="144.96" width="26.92" height="26.92" rx="3.15" ry="3.15" style="fill:#406eb5"/><path d="M107.46,173.06H86.84a4.34,4.34,0,0,1-4.33-4.33V148.11a4.34,4.34,0,0,1,4.33-4.33h20.62a4.34,4.34,0,0,1,4.33,4.33v20.63A4.34,4.34,0,0,1,107.46,173.06ZM86.84,146.14a2,2,0,0,0-2,2v20.63a2,2,0,0,0,2,2h20.62a2,2,0,0,0,2-2V148.11a2,2,0,0,0-2-2Z" style="fill:#414042"/><path d="M141.12,173.06H120.5a4.34,4.34,0,0,1-4.33-4.33V148.11a4.34,4.34,0,0,1,4.33-4.33h20.62a4.33,4.33,0,0,1,4.33,4.33v20.63A4.33,4.33,0,0,1,141.12,173.06ZM120.5,146.14a2,2,0,0,0-2,2v20.63a2,2,0,0,0,2,2h20.62a2,2,0,0,0,2-2V148.11a2,2,0,0,0-2-2Z" style="fill:#414042"/><path d="M174.78,173.06H154.15a4.33,4.33,0,0,1-4.33-4.33V148.11a4.33,4.33,0,0,1,4.33-4.33h20.62a4.34,4.34,0,0,1,4.33,4.33v20.63A4.34,4.34,0,0,1,174.78,173.06Zm-20.62-26.92a2,2,0,0,0-2,2v20.63a2,2,0,0,0,2,2h20.62a2,2,0,0,0,2-2V148.11a2,2,0,0,0-2-2Z" style="fill:#414042"/><path d="M208.44,173.06H187.81a4.33,4.33,0,0,1-4.33-4.33V148.11a4.33,4.33,0,0,1,4.33-4.33h20.62a4.34,4.34,0,0,1,4.33,4.33v20.63A4.34,4.34,0,0,1,208.44,173.06Zm-20.62-26.92a2,2,0,0,0-2,2v20.63a2,2,0,0,0,2,2h20.62a2,2,0,0,0,2-2V148.11a2,2,0,0,0-2-2Z" style="fill:#414042"/><path d="M105.06,166.17a1.18,1.18,0,0,1-1.18-1.18V151.41a1.18,1.18,0,1,1,2.36,0V165A1.18,1.18,0,0,1,105.06,166.17Z" style="fill:#414042"/><path d="M138.83,166.17a1.18,1.18,0,0,1-1.18-1.18V151.41a1.18,1.18,0,1,1,2.36,0V165A1.18,1.18,0,0,1,138.83,166.17Z" style="fill:#414042"/><path d="M172.6,166.17a1.18,1.18,0,0,1-1.18-1.18V151.41a1.18,1.18,0,1,1,2.36,0V165A1.18,1.18,0,0,1,172.6,166.17Z" style="fill:#414042"/><path d="M206.36,166.17a1.18,1.18,0,0,1-1.18-1.18V151.41a1.18,1.18,0,1,1,2.36,0V165A1.18,1.18,0,0,1,206.36,166.17Z" style="fill:#414042"/><path d="M523.32,198.14l-41.7,41.7a4.11,4.11,0,0,0-.3,5.46L478,248.6a1.65,1.65,0,0,0,0,2.33l2.9,2.9a1.65,1.65,0,0,0,2.33,0l3.29-3.29a4.11,4.11,0,0,0,5.46-.3l41.7-41.7a4.13,4.13,0,0,0,0-5.84l-4.56-4.56A4.12,4.12,0,0,0,523.32,198.14Z" style="fill:#fff"/><path d="M479.47,252.38l1.45,1.45a1.65,1.65,0,0,0,2.33,0l3.29-3.29a4.11,4.11,0,0,0,5.46-.3l41.7-41.7a4.13,4.13,0,0,0,0-5.84l-2.28-2.28Z" style="fill:#f1f2f2"/><path d="M482.09,255.29a2.62,2.62,0,0,1-1.86-.77l-2.9-2.9a2.64,2.64,0,0,1,0-3.72l2.73-2.73a5.09,5.09,0,0,1,.87-6l41.7-41.7a5.23,5.23,0,0,1,7.22,0l4.56,4.56a5.11,5.11,0,0,1,0,7.22l-41.7,41.7a5,5,0,0,1-3.58,1.48h0a5.11,5.11,0,0,1-2.44-.62l-2.73,2.73A2.62,2.62,0,0,1,482.09,255.29Zm44.14-57.39a3.12,3.12,0,0,0-2.22.92l-41.7,41.7a3.14,3.14,0,0,0-.23,4.17l.54.68-3.91,3.91a.68.68,0,0,0,0,1l2.9,2.9a.69.69,0,0,0,1,0l3.91-3.91.68.54a3.21,3.21,0,0,0,4.17-.23l41.7-41.7a3.15,3.15,0,0,0,0-4.45l-4.56-4.56A3.12,3.12,0,0,0,526.23,197.91Z" style="fill:#414042"/><path d="M529.59,213.34l12.93-12.93a7.83,7.83,0,0,0,0-11.07h0a7.83,7.83,0,0,0-11.07,0l-12.93,12.93Z" style="fill:#fbe69a"/><path d="M529.59,213.34l12.93-12.93a7.83,7.83,0,0,0,0-11.07L524,207.81Z" style="fill:#f9d657"/><path d="M529.59,214.72l-12.45-12.45,13.62-13.62a8.81,8.81,0,0,1,12.46,12.45Zm-9.69-12.45,9.69,9.69,12.24-12.24a6.86,6.86,0,0,0,0-9.69,7,7,0,0,0-9.69,0Z" style="fill:#414042"/><path d="M536.4,216.16a3.08,3.08,0,0,1,0,4.36h0a3.08,3.08,0,0,1-4.37,0l-20.71-20.71a3.08,3.08,0,0,1,0-4.36h0a3.09,3.09,0,0,1,4.37,0Z" style="fill:#fff"/><path d="M534.22,222.41a4,4,0,0,1-2.88-1.19l-20.71-20.71a4.07,4.07,0,0,1,0-5.75,4.16,4.16,0,0,1,5.75,0l20.71,20.71a4.07,4.07,0,0,1,0,5.75A4,4,0,0,1,534.22,222.41Zm-20.72-26.89a2.11,2.11,0,0,0-1.49,3.6l20.71,20.71a2.16,2.16,0,0,0,3,0,2.11,2.11,0,0,0,0-3L515,196.14A2.1,2.1,0,0,0,513.51,195.52Z" style="fill:#414042"/><path d="M487.64,275.83a10.1,10.1,0,0,1-20.21,0c0-5.58,10.83-20.32,10.83-20.32S487.64,270.25,487.64,275.83Z" style="fill:#406eb5"/><path d="M477.54,286.91a11.09,11.09,0,0,1-11.08-11.08c0-5.84,10.57-20.29,11-20.9l.85-1.15.77,1.2c.39.61,9.53,15,9.53,20.84A11.09,11.09,0,0,1,477.54,286.91Zm.67-29.65c-3.36,4.74-9.79,14.62-9.79,18.57a9.12,9.12,0,0,0,18.25,0C486.66,271.87,481.13,262,478.21,257.26Z" style="fill:#414042"/><path d="M477.93,283.48a1,1,0,0,1-.31-1.91,9.11,9.11,0,0,0,5.56-5.28A1,1,0,1,1,485,277a11.06,11.06,0,0,1-6.76,6.42A1,1,0,0,1,477.93,283.48Z" style="fill:#414042"/><path d="M414.48,141.34c-2.71,0-5.33-.07-6.44-.55-9.39-2.63-14.54-13.65-14.54-22.67a21.3,21.3,0,0,1,.2-2.79c.07-.51.13-1,.21-1.39,0-.24.1-.46.16-.69l.06-.26c.11-.46.18-.73.25-1s.17-.52.26-.79c.17-.49.27-.78.39-1.07s.26-.61.39-.91.28-.59.42-.88.3-.58.46-.86.33-.56.51-.84.36-.57.52-.79.41-.56.62-.82l.15-.19c.14-.18.27-.36.42-.53s.48-.54.73-.81.71-.73,1-1,.61-.57.89-.81l.49-.38.23-.18c.36-.27.58-.45.81-.61l.72-.47c.42-.26.67-.42.93-.57l.86-.46.86-.42.93-.4c.29-.12.59-.22.89-.33s.66-.23,1-.33l.69-.18.51,1.09-.07-1.2c.27-.07.54-.14.81-.19s.49-.08.74-.12c.62-.09,1.18-.16,1.71-.2A22.9,22.9,0,0,1,435.82,77a23.62,23.62,0,0,1,2.63.16l.56.09.24,0c.6.09,1.2.2,1.78.34l.84.22c.59.16,1.16.35,1.72.55l.69.25a23,23,0,0,1,2.2,1,22.1,22.1,0,0,1,2.29,1.4l.2.15c.69.5,1.25.94,1.8,1.42l.43.39c.5.45,1,.94,1.45,1.46l.33.37a22.14,22.14,0,0,1,5.14,10.52,17.27,17.27,0,0,1,14.8,10.51,17.18,17.18,0,0,1,4.06.59,16.86,16.86,0,0,1,2.77,1,16.78,16.78,0,0,1,6.63,5.54,16.55,16.55,0,0,1,1.44,2.46,17.28,17.28,0,0,1,1,2.79,18.87,18.87,0,0,1,.62,4.72c0,9-5.71,18.39-15.27,18.39h-3V139h3c8.08,0,12.9-8.15,12.9-16a16.21,16.21,0,0,0-.5-4,14.69,14.69,0,0,0-.87-2.39,14.87,14.87,0,0,0-1.27-2.21,14.63,14.63,0,0,0-11.86-6.18l-1.3,0-.3-.79a15,15,0,0,0-13.92-9.81h-1l-.15-1a20,20,0,0,0-4.75-10.29l-.17-.18c-.55-.61-1-1-1.44-1.46l-.38-.35c-.48-.42-1-.83-1.52-1.2l.4-1.17-.68,1a20.11,20.11,0,0,0-2-1.23,20.79,20.79,0,0,0-2-.94l-.62-.23c-.51-.18-1-.35-1.54-.5l-.76-.2c-.52-.12-1.06-.22-1.59-.3l-.72-.11a21.45,21.45,0,0,0-2.36-.15A20.51,20.51,0,0,0,415.51,98l-.09,1-1.05,0a18.27,18.27,0,0,0-2.27.21l-.83.12-.68.16-.47.12-.57.15-.83.28c-.31.11-.57.2-.83.3s-.56.24-.84.36l-.76.37-.78.42-.67.41-.78.51c-.2.14-.4.29-.59.44l-.37.29-.4.31c-.24.21-.48.43-.71.65s-.66.63-.93.93-.52.55-.72.8-.23.29-.34.43l-.16.21c-.19.24-.37.48-.55.73l-.39.6c-.22.35-.37.6-.52.85s-.28.51-.42.77-.25.52-.37.78-.24.54-.35.81-.19.51-.28.77c-.15.42-.22.65-.29.88s-.12.46-.18.68l-.12.47c0,.19-.1.38-.14.57-.08.38-.13.78-.18,1.17a19.13,19.13,0,0,0-.19,2.54c0,8.15,4.54,18.08,13,20.45.54.22,1.95.45,5.91.41h-.16v2.36h-.09Z" style="fill:#414042"/><path d="M452.69,110.34a1.18,1.18,0,0,1-.93-1.91,20.64,20.64,0,0,0,4.38-12.78,1.18,1.18,0,1,1,2.36,0,23,23,0,0,1-4.88,14.23A1.18,1.18,0,0,1,452.69,110.34Z" style="fill:#414042"/><path d="M463.29,112.18a1.18,1.18,0,0,1-.79-2.06A16.23,16.23,0,0,1,473.32,106a1.18,1.18,0,0,1,0,2.36,13.87,13.87,0,0,0-9.25,3.52A1.17,1.17,0,0,1,463.29,112.18Z" style="fill:#414042"/><path d="M444.31,163.33h-3.19a3.94,3.94,0,0,1-3.92-3.94v-3.32a20.65,20.65,0,0,1-4.75-2l-2.36,2.34a4,4,0,0,1-5.55,0l-2.23-2.25a3.93,3.93,0,0,1,0-5.56l2.36-2.34a20.58,20.58,0,0,1-2-4.76h-3.31a3.93,3.93,0,0,1-3.91-3.94l0-3.18a3.93,3.93,0,0,1,3.92-3.91h3.34a20.8,20.8,0,0,1,2-4.75l-2.34-2.36a3.93,3.93,0,0,1,0-5.55l2.26-2.24a4,4,0,0,1,5.55,0l2.34,2.37a20.56,20.56,0,0,1,4.65-1.92V112.7a3.93,3.93,0,0,1,3.93-3.93h3.17a3.93,3.93,0,0,1,3.93,3.93V116a20.52,20.52,0,0,1,4.75,2l2.35-2.35a4,4,0,0,1,5.55,0l2.25,2.25a3.93,3.93,0,0,1,0,5.55l-2.35,2.35a20.51,20.51,0,0,1,2,4.76h3.32a3.93,3.93,0,0,1,3.92,3.93v3.18a3.94,3.94,0,0,1-3.93,3.92h-3.33a20.54,20.54,0,0,1-2,4.75l2.34,2.36a3.93,3.93,0,0,1,0,5.55l-2.25,2.24a4,4,0,0,1-5.55,0L453,154.13a20.74,20.74,0,0,1-4.76,2v3.32A3.94,3.94,0,0,1,444.31,163.33Zm-12.18-12.25.8.51a18.26,18.26,0,0,0,5.74,2.41l.92.21,0,5.18a1.57,1.57,0,0,0,1.56,1.57h3.17v0a1.57,1.57,0,0,0,1.57-1.56v-5.18l.92-.21a18.38,18.38,0,0,0,5.76-2.37l.8-.5,3.66,3.68a1.6,1.6,0,0,0,2.21,0l2.25-2.24a1.56,1.56,0,0,0,0-2.21l-3.66-3.68.5-.8a18.3,18.3,0,0,0,2.4-5.75l.21-.92h5.19a1.57,1.57,0,0,0,1.57-1.57V134.5a1.57,1.57,0,0,0-1.56-1.57H461l-.21-.92a18.24,18.24,0,0,0-2.38-5.75l-.51-.8,3.67-3.67a1.56,1.56,0,0,0,0-2.21l-2.25-2.25a1.6,1.6,0,0,0-2.21,0L453.41,121l-.8-.51a18.23,18.23,0,0,0-5.75-2.39l-.92-.21V112.7a1.57,1.57,0,0,0-1.57-1.56H441.2a1.57,1.57,0,0,0-1.57,1.56v5.19l-.92.21a18.31,18.31,0,0,0-5.66,2.33l-.8.5-3.65-3.69a1.61,1.61,0,0,0-2.21,0l-2.26,2.24a1.57,1.57,0,0,0,0,2.21l3.65,3.68-.51.8a18.39,18.39,0,0,0-2.42,5.74l-.21.92-5.18,0a1.56,1.56,0,0,0-1.57,1.56l0,3.18a1.56,1.56,0,0,0,.46,1.11,1.55,1.55,0,0,0,1.1.46l5.18,0,.21.92a18.21,18.21,0,0,0,2.37,5.76l.5.8L424,150.26a1.54,1.54,0,0,0-.46,1.1,1.56,1.56,0,0,0,.46,1.11l2.23,2.25a1.61,1.61,0,0,0,2.21,0Zm10.66-5.14a9.89,9.89,0,1,1,9.89-9.89A9.9,9.9,0,0,1,442.79,145.94Zm0-17.41a7.53,7.53,0,1,0,7.53,7.53A7.53,7.53,0,0,0,442.79,128.52Z" style="fill:#414042"/><path d="M446,150.48a1.18,1.18,0,0,1-.34-2.31,12.38,12.38,0,0,0,7.23-5.81A1.18,1.18,0,1,1,455,143.5a14.76,14.76,0,0,1-8.61,6.93A1.25,1.25,0,0,1,446,150.48Z" style="fill:#414042"/><path d="M429.64,133.14a1.22,1.22,0,0,1-.4-.07,1.18,1.18,0,0,1-.71-1.51,15.91,15.91,0,0,1,11.11-10.07,1.18,1.18,0,1,1,.58,2.29,13.53,13.53,0,0,0-9.46,8.58A1.18,1.18,0,0,1,429.64,133.14Z" style="fill:#414042"/><rect x="55.51" y="325.59" width="92.13" height="75.59" style="fill:#fff"/><rect x="55.51" y="325.59" width="92.13" height="16.54" style="fill:#f9d657"/><path d="M147.64,403.54H53.15v-78h94.49Zm-92.13-2.36h89.76V328H55.51Z" style="fill:#414042"/><rect x="53.15" y="339.76" width="94.49" height="2.36" style="fill:#414042"/><circle cx="63.63" cy="333.88" r="2.2" style="fill:#406eb5"/><circle cx="70.71" cy="333.88" r="2.2" style="fill:#406eb5"/><circle cx="77.8" cy="333.88" r="2.2" style="fill:#406eb5"/><path d="M119.12,368.62h-3.45a15.86,15.86,0,0,0-2.06-5l2.44-2.44a2.23,2.23,0,0,0,0-3.16l-1.83-1.83a2.23,2.23,0,0,0-3.16,0l-2.44,2.45a15.84,15.84,0,0,0-5-2.07v-3.45a2.24,2.24,0,0,0-2.24-2.23H98.83a2.24,2.24,0,0,0-2.23,2.23v3.45a15.88,15.88,0,0,0-4.9,2l-2.43-2.45a2.24,2.24,0,0,0-3.16,0L84.27,358a2.24,2.24,0,0,0,0,3.16l2.43,2.45a16,16,0,0,0-2.09,5H81.15a2.23,2.23,0,0,0-2.24,2.22l0,2.58a2.23,2.23,0,0,0,2.23,2.24h3.44a15.8,15.8,0,0,0,2.05,5L84.16,383a2.23,2.23,0,0,0,0,3.16L86,388a2.23,2.23,0,0,0,3.16,0l2.45-2.43a15.82,15.82,0,0,0,5,2.08v3.45a2.24,2.24,0,0,0,2.23,2.24h2.58a2.23,2.23,0,0,0,2.24-2.22v-3.45a15.93,15.93,0,0,0,5-2.05l2.44,2.45a2.24,2.24,0,0,0,3.16,0l1.83-1.82a2.23,2.23,0,0,0,0-3.16l-2.44-2.45a15.79,15.79,0,0,0,2.07-5h3.45a2.23,2.23,0,0,0,2.24-2.23v-2.58A2.23,2.23,0,0,0,119.12,368.62Zm-19,10.58a7.08,7.08,0,1,1,7.09-7.08A7.08,7.08,0,0,1,100.12,379.2Z" style="fill:#f1787b"/><path d="M101.36,394.53H98.77a3.42,3.42,0,0,1-3.4-3.43v-2.53a17,17,0,0,1-3.61-1.51L90,388.84a3.49,3.49,0,0,1-4.83,0L83.32,387a3.41,3.41,0,0,1,0-4.83l1.8-1.79a17,17,0,0,1-1.49-3.62H81.12a3.41,3.41,0,0,1-3.4-3.43l0-2.59a3.42,3.42,0,0,1,3.41-3.4h2.55a17,17,0,0,1,1.51-3.6l-1.78-1.8a3.42,3.42,0,0,1,0-4.83l1.84-1.82a3.5,3.5,0,0,1,4.83,0l1.79,1.8a17,17,0,0,1,3.52-1.45v-2.53a3.42,3.42,0,0,1,3.42-3.41h2.58a3.42,3.42,0,0,1,3.42,3.41v2.53a17,17,0,0,1,3.61,1.5l1.79-1.79a3.5,3.5,0,0,1,4.82,0l1.83,1.83a3.41,3.41,0,0,1,0,4.83l-1.79,1.79a17,17,0,0,1,1.5,3.61h2.53a3.42,3.42,0,0,1,3.41,3.42v2.58a3.42,3.42,0,0,1-3.41,3.41h-2.54a17,17,0,0,1-1.5,3.61l1.79,1.8a3.42,3.42,0,0,1,0,4.83L115,388.91a3.5,3.5,0,0,1-4.83,0l-1.79-1.8a17.06,17.06,0,0,1-3.61,1.49v2.53A3.42,3.42,0,0,1,101.36,394.53Zm-9.94-10.46.8.51a14.6,14.6,0,0,0,4.6,1.93l.92.21,0,4.39a1.06,1.06,0,0,0,1,1.06h2.58v0a1.05,1.05,0,0,0,1.05-1v-4.39l.92-.21a14.7,14.7,0,0,0,4.61-1.9l.8-.5,3.1,3.12a1.09,1.09,0,0,0,1.49,0l1.83-1.82a1.05,1.05,0,0,0,0-1.49l-3.1-3.12.51-.8a14.62,14.62,0,0,0,1.92-4.6l.21-.92h4.4a1.06,1.06,0,0,0,1.05-1.05v-2.58a1.05,1.05,0,0,0-1-1.05h-4.39l-.21-.92a14.68,14.68,0,0,0-1.91-4.61l-.5-.8,3.11-3.11a1.05,1.05,0,0,0,.31-.75,1,1,0,0,0-.31-.74L113.39,357a1.08,1.08,0,0,0-1.49,0l-3.11,3.11-.8-.51a14.69,14.69,0,0,0-4.61-1.92l-.92-.21v-4.39a1.06,1.06,0,0,0-1.06-1.05H98.83a1.05,1.05,0,0,0-1.05,1.05v4.39l-.92.21a14.69,14.69,0,0,0-4.53,1.87l-.8.5L88.43,357a1.09,1.09,0,0,0-1.49,0l-1.84,1.82a1,1,0,0,0-.31.74,1,1,0,0,0,.3.74l3.09,3.12-.51.8a14.8,14.8,0,0,0-1.93,4.6l-.21.92-4.39,0a1.05,1.05,0,0,0-1.05,1l0,2.59a1.05,1.05,0,0,0,1,1.05l4.39,0,.21.92a14.61,14.61,0,0,0,1.9,4.61l.5.8L85,383.84a1,1,0,0,0-.31.74,1.05,1.05,0,0,0,.31.75l1.82,1.83a1.08,1.08,0,0,0,1.49,0Zm8.7-3.68a8.26,8.26,0,1,1,8.27-8.27A8.27,8.27,0,0,1,100.12,380.38Zm0-14.16a5.9,5.9,0,1,0,5.91,5.9A5.91,5.91,0,0,0,100.12,366.22Z" style="fill:#414042"/><path d="M102.76,383.78a.89.89,0,0,1-.25-1.73,10.15,10.15,0,0,0,5.92-4.76.88.88,0,1,1,1.55.86,11.93,11.93,0,0,1-7,5.6A.89.89,0,0,1,102.76,383.78Z" style="fill:#414042"/><path d="M89.42,369.68a.85.85,0,0,1-.3-.05.88.88,0,0,1-.54-1.13,12.86,12.86,0,0,1,9-8.14.88.88,0,1,1,.43,1.72,11.09,11.09,0,0,0-7.75,7A.89.89,0,0,1,89.42,369.68Z" style="fill:#414042"/><rect x="175.98" y="438.98" width="224.41" height="40.16" style="fill:#f9d657"/><rect x="175.98" y="462.6" width="224.41" height="16.54" style="fill:#edc100"/><path d="M402.76,479.13H176V436.61H402.76Zm-224.41-2.36h222V439h-222Z" style="fill:#414042"/><rect x="187.8" y="436.61" width="2.36" height="18.9" style="fill:#414042"/><rect x="199.61" y="436.61" width="2.36" height="9.45" style="fill:#414042"/><rect x="211.42" y="436.61" width="2.36" height="9.45" style="fill:#414042"/><rect x="223.23" y="436.61" width="2.36" height="9.45" style="fill:#414042"/><rect x="235.04" y="436.61" width="2.36" height="18.9" style="fill:#414042"/><rect x="246.85" y="436.61" width="2.36" height="9.45" style="fill:#414042"/><rect x="258.66" y="436.61" width="2.36" height="9.45" style="fill:#414042"/><rect x="270.47" y="436.61" width="2.36" height="9.45" style="fill:#414042"/><rect x="282.28" y="436.61" width="2.36" height="9.45" style="fill:#414042"/><rect x="294.09" y="436.61" width="2.36" height="18.9" style="fill:#414042"/><rect x="305.91" y="436.61" width="2.36" height="9.45" style="fill:#414042"/><rect x="317.72" y="436.61" width="2.36" height="9.45" style="fill:#414042"/><rect x="329.53" y="436.61" width="2.36" height="9.45" style="fill:#414042"/><rect x="341.34" y="436.61" width="2.36" height="9.45" style="fill:#414042"/><rect x="353.15" y="436.61" width="2.36" height="18.9" style="fill:#414042"/><rect x="364.96" y="436.61" width="2.36" height="9.45" style="fill:#414042"/><rect x="376.77" y="436.61" width="2.36" height="9.45" style="fill:#414042"/><rect x="388.58" y="436.61" width="2.36" height="9.45" style="fill:#414042"/><path d="M445.28,320.87H428.74a1.18,1.18,0,1,1,0-2.36h16.54a1.18,1.18,0,0,1,0,2.36Z" style="fill:#414042"/><path d="M454.72,320.87H450a1.18,1.18,0,1,1,0-2.36h4.72a1.18,1.18,0,1,1,0,2.36Z" style="fill:#414042"/><path d="M530.31,328H513.78a1.18,1.18,0,1,1,0-2.36h16.54a1.18,1.18,0,1,1,0,2.36Z" style="fill:#414042"/><path d="M535,335H523.23a1.18,1.18,0,1,1,0-2.36H535a1.18,1.18,0,0,1,0,2.36Z" style="fill:#414042"/><path d="M457.09,335H445.28a1.18,1.18,0,1,1,0-2.36h11.81a1.18,1.18,0,0,1,0,2.36Z" style="fill:#414042"/><path d="M450,328H433.46a1.18,1.18,0,0,1,0-2.36H450a1.18,1.18,0,1,1,0,2.36Z" style="fill:#414042"/><path d="M516.14,335h-7.09a1.18,1.18,0,1,1,0-2.36h7.09a1.18,1.18,0,0,1,0,2.36Z" style="fill:#414042"/><path d="M528,342.13H502a1.18,1.18,0,0,1,0-2.36h26a1.18,1.18,0,1,1,0,2.36Z" style="fill:#414042"/><polygon points="509.38 329.85 505.94 316.14 458.28 316.14 454.84 329.78 452.55 329.21 456.44 313.78 507.79 313.78 511.68 329.27 509.38 329.85" style="fill:#414042"/><rect x="464.47" y="320.85" width="15.12" height="2.36" transform="translate(45.31 702.06) rotate(-75.99)" style="fill:#414042"/><rect x="489.18" y="314.47" width="2.36" height="15.12" transform="translate(-63.48 128.58) rotate(-14.04)" style="fill:#414042"/><polygon points="481.15 366.96 452.76 330.08 454.63 328.64 481.21 363.16 509.62 328.62 511.44 330.11 481.15 366.96" style="fill:#414042"/><rect x="474.07" y="328.4" width="2.36" height="37.62" transform="translate(-85.25 167.62) rotate(-18.39)" style="fill:#414042"/><rect x="468.01" y="346.03" width="37.35" height="2.36" transform="translate(11.34 709.8) rotate(-72.84)" style="fill:#414042"/><path d="M453.7,330.31c-.65,0-1.18-.34-1.18-1a1.11,1.11,0,0,1,1.17-1.1l56.84-.27h0a1.18,1.18,0,0,1,1.18,1.17c0,.65-.52,1-1.17,1l-56.84.18Z" style="fill:#414042"/><path d="M474.75,305.64v.1L473.44,307l-3.81-3.77V303l3.81-3.77,1.31,1.29v.1l-2.61,2.51Z" style="fill:#414042"/><path d="M486.49,295.66l-5.52,14h-2.1l5.51-14Z" style="fill:#414042"/><path d="M493.18,303.14l-2.61-2.51v-.1l1.31-1.29,3.81,3.77v.25L491.87,307l-1.31-1.29v-.1Z" style="fill:#414042"/><path d="M565.75,146.06H499.61a1.18,1.18,0,0,1,0-2.36h66.14a1.18,1.18,0,1,1,0,2.36Z" style="fill:#414042"/><path d="M572.83,224H549.21a1.18,1.18,0,0,1,0-2.36h23.62a1.18,1.18,0,0,1,0,2.36Z" style="fill:#414042"/><path d="M204.33,413h-85a1.18,1.18,0,1,1,0-2.36h85a1.18,1.18,0,0,1,0,2.36Z" style="fill:#414042"/><path d="M48.43,276H1.18a1.18,1.18,0,0,1,0-2.36H48.43a1.18,1.18,0,0,1,0,2.36Z" style="fill:#414042"/><path d="M594.09,294.88H561a1.18,1.18,0,0,1,0-2.36h33.07a1.18,1.18,0,0,1,0,2.36Z" style="fill:#414042"/><path d="M572.83,306.69H556.3a1.18,1.18,0,1,1,0-2.36h16.54a1.18,1.18,0,0,1,0,2.36Z" style="fill:#414042"/><path d="M402.76,398.82H386.22a1.18,1.18,0,0,1,0-2.36h16.54a1.18,1.18,0,1,1,0,2.36Z" style="fill:#414042"/><path d="M598.82,306.69H582.28a1.18,1.18,0,1,1,0-2.36h16.54a1.18,1.18,0,1,1,0,2.36Z" style="fill:#414042"/><path d="M421.65,53.94H324.8a1.18,1.18,0,1,1,0-2.36h96.85a1.18,1.18,0,1,1,0,2.36Z" style="fill:#414042"/><path d="M79.13,124.8H24.8a1.18,1.18,0,1,1,0-2.36H79.13a1.18,1.18,0,1,1,0,2.36Z" style="fill:#414042"/><path d="M15.35,124.8H1.18a1.18,1.18,0,1,1,0-2.36H15.35a1.18,1.18,0,1,1,0,2.36Z" style="fill:#414042"/><path d="M450,37.4H388.58a1.18,1.18,0,1,1,0-2.36H450a1.18,1.18,0,1,1,0,2.36Z" style="fill:#414042"/><path d="M381.5,37.4H369.69a1.18,1.18,0,1,1,0-2.36H381.5a1.18,1.18,0,1,1,0,2.36Z" style="fill:#414042"/><path d="M258.66,23.23H187.8a1.18,1.18,0,1,1,0-2.36h70.87a1.18,1.18,0,1,1,0,2.36Z" style="fill:#414042"/><path d="M168.9,23.23H131.1a1.18,1.18,0,1,1,0-2.36h37.8a1.18,1.18,0,1,1,0,2.36Z" style="fill:#414042"/><path d="M174.51,89.06h-5.3A24.31,24.31,0,0,0,166,81.4l3.75-3.75a3.43,3.43,0,0,0,0-4.86L167,70a3.43,3.43,0,0,0-4.85,0l-3.76,3.75a24.35,24.35,0,0,0-7.65-3.18v-5.3a3.43,3.43,0,0,0-3.43-3.43h-4a3.44,3.44,0,0,0-3.44,3.43v5.3a24.39,24.39,0,0,0-7.53,3.11l-3.73-3.77a3.43,3.43,0,0,0-4.85,0L121,72.65a3.44,3.44,0,0,0,0,4.86l3.73,3.77a24.57,24.57,0,0,0-3.21,7.63l-5.3,0a3.43,3.43,0,0,0-3.44,3.42l0,4a3.44,3.44,0,0,0,3.42,3.45l5.29,0a24.29,24.29,0,0,0,3.15,7.66l-3.77,3.74a3.43,3.43,0,0,0,0,4.86l2.79,2.81a3.43,3.43,0,0,0,4.86,0l3.76-3.74a24.31,24.31,0,0,0,7.64,3.2l0,5.3a3.43,3.43,0,0,0,3.42,3.44h4a3.43,3.43,0,0,0,3.44-3.42v-5.3a24.41,24.41,0,0,0,7.65-3.16l3.75,3.76a3.43,3.43,0,0,0,4.86,0l2.81-2.8a3.43,3.43,0,0,0,0-4.86L166,107.52a24.4,24.4,0,0,0,3.19-7.64h5.3a3.43,3.43,0,0,0,3.43-3.43v-4A3.43,3.43,0,0,0,174.51,89.06Zm-29.19,16.26A10.88,10.88,0,1,1,156.2,94.43,10.88,10.88,0,0,1,145.31,105.31Z" style="fill:#406eb5"/><path d="M118.9,58.52h-4.24a19.45,19.45,0,0,0-2.54-6.12l3-3a2.74,2.74,0,0,0,0-3.88l-2.24-2.25a2.75,2.75,0,0,0-3.88,0l-3,3a19.43,19.43,0,0,0-6.12-2.54V39.47a2.75,2.75,0,0,0-2.75-2.75H94a2.75,2.75,0,0,0-2.75,2.75v4.24a19.44,19.44,0,0,0-6,2.48l-3-3a2.75,2.75,0,0,0-3.88,0l-2.26,2.23a2.75,2.75,0,0,0,0,3.88l3,3a19.64,19.64,0,0,0-2.57,6.11l-4.24,0a2.74,2.74,0,0,0-2.75,2.74l0,3.18a2.74,2.74,0,0,0,2.74,2.75l4.23,0a19.44,19.44,0,0,0,2.52,6.13l-3,3a2.74,2.74,0,0,0,0,3.88l2.23,2.25a2.75,2.75,0,0,0,3.88,0l3-3a19.48,19.48,0,0,0,6.11,2.56v4.24a2.75,2.75,0,0,0,2.74,2.76h3.18a2.75,2.75,0,0,0,2.76-2.74V81.94A19.6,19.6,0,0,0,106,79.41l3,3a2.75,2.75,0,0,0,3.88,0l2.25-2.24a2.75,2.75,0,0,0,0-3.88l-3-3a19.49,19.49,0,0,0,2.55-6.12h4.24a2.75,2.75,0,0,0,2.75-2.74V61.27A2.75,2.75,0,0,0,118.9,58.52Zm-23.35,13a8.71,8.71,0,1,1,8.71-8.71A8.71,8.71,0,0,1,95.55,71.53Z" style="fill:#fff"/><path d="M147.22,128.23h-4a4.62,4.62,0,0,1-4.6-4.63v-4.38a25.43,25.43,0,0,1-6.28-2.63l-3.11,3.09a4.73,4.73,0,0,1-6.53,0l-2.79-2.81a4.61,4.61,0,0,1,0-6.53l3.11-3.09a25.36,25.36,0,0,1-2.59-6.3l-4.37,0a4.62,4.62,0,0,1-4.6-4.63l0-4a4.62,4.62,0,0,1,4.62-4.6l4.39,0a25.75,25.75,0,0,1,2.64-6.27l-3.08-3.11a4.62,4.62,0,0,1,0-6.53L123,69a4.72,4.72,0,0,1,6.52,0l3.08,3.11a25.52,25.52,0,0,1,6.16-2.54V65.25a4.62,4.62,0,0,1,4.62-4.61h4a4.62,4.62,0,0,1,4.61,4.61v4.38a25.39,25.39,0,0,1,6.29,2.62l3.1-3.1a4.72,4.72,0,0,1,6.52,0L170.63,72a4.61,4.61,0,0,1,0,6.53l-3.1,3.1a25.44,25.44,0,0,1,2.6,6.29h4.37a4.62,4.62,0,0,1,4.61,4.62v4a4.62,4.62,0,0,1-4.61,4.6h-4.39a25.59,25.59,0,0,1-2.62,6.28l3.09,3.11a4.62,4.62,0,0,1,0,6.52l-2.82,2.8a4.73,4.73,0,0,1-6.53,0l-3.09-3.1a25.63,25.63,0,0,1-6.29,2.6v4.37A4.62,4.62,0,0,1,147.22,128.23ZM132,113.59l.8.51a23.1,23.1,0,0,0,7.27,3l.92.21,0,6.25a2.25,2.25,0,0,0,2.24,2.26h4v0a2.25,2.25,0,0,0,2.25-2.24l0-6.25.92-.21a23.18,23.18,0,0,0,7.28-3l.8-.5,4.41,4.43a2.31,2.31,0,0,0,3.19,0l2.82-2.8a2.26,2.26,0,0,0,0-3.19l-4.41-4.43.51-.8a23.23,23.23,0,0,0,3-7.27l.21-.92h6.25a2.25,2.25,0,0,0,2.25-2.25v-4a2.26,2.26,0,0,0-2.25-2.25h-6.24l-.21-.92A23.11,23.11,0,0,0,165,82l-.5-.8L169,76.81a2.25,2.25,0,0,0,0-3.19l-2.81-2.81a2.3,2.3,0,0,0-3.18,0l-4.42,4.42-.8-.51a23.1,23.1,0,0,0-7.28-3l-.92-.21V65.25A2.25,2.25,0,0,0,147.3,63h-4a2.25,2.25,0,0,0-2.26,2.25v6.24l-.92.21a23.26,23.26,0,0,0-7.17,3l-.8.5-4.4-4.45a2.3,2.3,0,0,0-3.18,0l-2.83,2.79a2.26,2.26,0,0,0,0,3.19l4.4,4.44-.51.8a23.36,23.36,0,0,0-3.06,7.27l-.21.92-6.24,0a2.25,2.25,0,0,0-2.26,2.24l0,4a2.26,2.26,0,0,0,2.25,2.26l6.24,0,.21.92a23.07,23.07,0,0,0,3,7.29l.5.8L121.63,112a2.25,2.25,0,0,0,0,3.19l2.79,2.81a2.31,2.31,0,0,0,3.18,0Zm13.29-7.1a12.06,12.06,0,1,1,12.07-12.06A12.08,12.08,0,0,1,145.31,106.49Zm0-21.77a9.7,9.7,0,1,0,9.71,9.7A9.71,9.71,0,0,0,145.31,84.73Z" style="fill:#414042"/><path d="M97.07,90.1H93.88A3.94,3.94,0,0,1,90,86.15V82.83a20.66,20.66,0,0,1-4.75-2l-2.36,2.34a4,4,0,0,1-5.55,0l-2.23-2.25a3.93,3.93,0,0,1,0-5.56L77.45,73a20.58,20.58,0,0,1-2-4.76H72.18a3.93,3.93,0,0,1-3.91-3.94l0-3.18a3.93,3.93,0,0,1,3.92-3.91h3.34a20.75,20.75,0,0,1,2-4.75L75.2,50.11a3.93,3.93,0,0,1,0-5.55l2.26-2.24a4,4,0,0,1,5.55,0l2.34,2.37A20.56,20.56,0,0,1,90,42.79V39.47A3.93,3.93,0,0,1,94,35.54h3.17a3.93,3.93,0,0,1,3.93,3.93v3.32a20.55,20.55,0,0,1,4.75,2l2.35-2.35a4,4,0,0,1,5.55,0L116,44.67a3.92,3.92,0,0,1,0,5.55l-2.35,2.35a20.56,20.56,0,0,1,2,4.76h3.32a3.93,3.93,0,0,1,3.92,3.93v3.18a3.94,3.94,0,0,1-3.93,3.92h-3.33a20.6,20.6,0,0,1-2,4.75l2.34,2.36a3.93,3.93,0,0,1,0,5.55l-2.25,2.24a4,4,0,0,1-5.56,0l-2.35-2.36a20.74,20.74,0,0,1-4.76,2v3.32A3.94,3.94,0,0,1,97.07,90.1ZM84.88,77.85l.8.51a18.28,18.28,0,0,0,5.74,2.41l.92.21,0,5.18a1.57,1.57,0,0,0,1.56,1.57h3.18v0a1.57,1.57,0,0,0,1.57-1.56V81l.92-.21a18.36,18.36,0,0,0,5.76-2.37l.8-.5,3.66,3.68a1.6,1.6,0,0,0,2.21,0l2.25-2.24a1.56,1.56,0,0,0,0-2.21l-3.66-3.68.51-.8a18.32,18.32,0,0,0,2.4-5.75l.21-.92h5.19a1.57,1.57,0,0,0,1.57-1.57V61.27a1.57,1.57,0,0,0-1.56-1.57h-5.18l-.21-.92A18.24,18.24,0,0,0,111.13,53l-.5-.8,3.67-3.67a1.56,1.56,0,0,0,0-2.21l-2.25-2.25a1.6,1.6,0,0,0-2.21,0l-3.67,3.67-.8-.51a18.26,18.26,0,0,0-5.75-2.39l-.92-.21V39.47a1.57,1.57,0,0,0-1.57-1.56H94a1.57,1.57,0,0,0-1.57,1.56v5.19l-.92.21a18.29,18.29,0,0,0-5.66,2.33l-.8.5L81.36,44a1.61,1.61,0,0,0-2.21,0l-2.26,2.24a1.57,1.57,0,0,0,0,2.21l3.65,3.68-.51.8a18.42,18.42,0,0,0-2.41,5.74l-.21.92-5.18,0a1.56,1.56,0,0,0-1.57,1.56l0,3.18a1.56,1.56,0,0,0,1.56,1.57l5.18,0,.21.92a18.24,18.24,0,0,0,2.37,5.76l.5.8L76.76,77a1.54,1.54,0,0,0-.46,1.1,1.56,1.56,0,0,0,.46,1.11L79,81.5a1.61,1.61,0,0,0,2.21,0Zm10.66-5.14a9.89,9.89,0,1,1,9.89-9.89A9.9,9.9,0,0,1,95.55,72.71Zm0-17.41a7.53,7.53,0,1,0,7.53,7.53A7.53,7.53,0,0,0,95.55,55.29Z" style="fill:#414042"/><path d="M150.76,112.11a1.18,1.18,0,0,1-.34-2.31,16.18,16.18,0,0,0,9.45-7.6,1.18,1.18,0,1,1,2.06,1.14,18.56,18.56,0,0,1-10.84,8.72A1.22,1.22,0,0,1,150.76,112.11Z" style="fill:#414042"/><path d="M98.79,77.25a1.18,1.18,0,0,1-.34-2.31,12.38,12.38,0,0,0,7.22-5.81,1.18,1.18,0,1,1,2.06,1.14,14.76,14.76,0,0,1-8.61,6.93A1.23,1.23,0,0,1,98.79,77.25Z" style="fill:#414042"/><path d="M129.64,89.81a1.21,1.21,0,0,1-.4-.07,1.18,1.18,0,0,1-.71-1.51A18.35,18.35,0,0,1,141.34,76.6a1.18,1.18,0,0,1,.58,2.29A16,16,0,0,0,130.75,89,1.18,1.18,0,0,1,129.64,89.81Z" style="fill:#414042"/><path d="M82.39,59.91a1.21,1.21,0,0,1-.4-.07,1.18,1.18,0,0,1-.71-1.51A15.91,15.91,0,0,1,92.39,48.26,1.18,1.18,0,0,1,93,50.55a13.53,13.53,0,0,0-9.46,8.58A1.18,1.18,0,0,1,82.39,59.91Z" style="fill:#414042"/><path d="M142.91,46.85H124a1.18,1.18,0,0,1,0-2.36h18.9a1.18,1.18,0,1,1,0,2.36Z" style="fill:#414042"/><path d="M152.36,53.94h-18.9a1.18,1.18,0,0,1,0-2.36h18.9a1.18,1.18,0,1,1,0,2.36Z" style="fill:#414042"/><path d="M157.09,46.85h-9.45a1.18,1.18,0,1,1,0-2.36h9.45a1.18,1.18,0,0,1,0,2.36Z" style="fill:#414042"/><path d="M95.67,103.54H76.77a1.18,1.18,0,1,1,0-2.36h18.9a1.18,1.18,0,1,1,0,2.36Z" style="fill:#414042"/><path d="M105.12,110.63H86.22a1.18,1.18,0,0,1,0-2.36h18.9a1.18,1.18,0,0,1,0,2.36Z" style="fill:#414042"/><path d="M109.84,103.54h-9.45a1.18,1.18,0,1,1,0-2.36h9.45a1.18,1.18,0,0,1,0,2.36Z" style="fill:#414042"/><polygon points="95.04 305.88 75.46 305.88 75.46 296.51 77.82 296.51 77.82 303.52 92.68 303.52 92.68 297.24 95.04 297.24 95.04 305.88" style="fill:#414042"/><path d="M99.28,281.93H96.92v-6.49l.69-.32a29.77,29.77,0,1,0-24.72,0l.69.32v6.49H71.22v-5a32.14,32.14,0,1,1,28.06,0Z" style="fill:#414042"/><path d="M99.41,297.69H71.1V280.43H99.41Zm-25.95-2.36H97V282.79H73.46Z" style="fill:#414042"/><rect x="83.86" y="285.43" width="14.17" height="2.36" style="fill:#414042"/><rect x="72.05" y="290.16" width="14.17" height="2.36" style="fill:#414042"/><path d="M62.71,242a1.18,1.18,0,0,1-1.13-1.53,24.91,24.91,0,0,1,14.87-15.91,1.18,1.18,0,1,1,.84,2.21,22.54,22.54,0,0,0-13.45,14.39A1.18,1.18,0,0,1,62.71,242Z" style="fill:#414042"/><polygon points="357.65 424.29 221.86 424.29 239.28 355.55 340.83 355.55 357.65 424.29" style="fill:#f1f2f2"/><polygon points="357.65 424.29 221.86 424.29 239.28 355.55 340.83 355.55 357.65 424.29" style="fill:#e6e7e8"/><path d="M359.15,425.47H220.34l18-71.11H341.76Zm-135.78-2.36H356.14L339.9,356.73H240.2Z" style="fill:#414042"/><rect x="122.9" y="189.24" width="333.7" height="169" rx="4.99" ry="4.99" style="fill:#fff"/><path d="M451.61,359.42H127.89a6.18,6.18,0,0,1-6.17-6.18v-159a6.18,6.18,0,0,1,6.17-6.17H451.61a6.18,6.18,0,0,1,6.17,6.17v159A6.18,6.18,0,0,1,451.61,359.42Zm-323.72-169a3.81,3.81,0,0,0-3.81,3.81v159a3.82,3.82,0,0,0,3.81,3.81H451.61a3.82,3.82,0,0,0,3.81-3.81v-159a3.81,3.81,0,0,0-3.81-3.81Z" style="fill:#414042"/><path d="M456.6,349.3V370a13.31,13.31,0,0,1-13.31,13.32H136.21A13.32,13.32,0,0,1,122.9,370V349.3Z" style="fill:#fff"/><path d="M443.29,384.53H136.21A14.51,14.51,0,0,1,121.72,370V349.3h2.36V370a12.14,12.14,0,0,0,12.13,12.13H443.29A12.14,12.14,0,0,0,455.42,370V349.3h2.36V370A14.51,14.51,0,0,1,443.29,384.53Z" style="fill:#414042"/><rect x="131.87" y="200.72" width="314.37" height="157.82" style="fill:#e6e7e8"/><path d="M447.42,359.73H130.69V199.54H447.42Zm-314.37-2.36h312V201.9h-312Z" style="fill:#414042"/><rect x="144.86" y="211.41" width="46.6" height="136.73" style="fill:#f9d657"/><rect x="198.22" y="211.41" width="235.89" height="48.83" style="fill:#406eb5"/><rect x="198.22" y="266.23" width="74.64" height="81.91" style="fill:#f1787b"/><rect x="278.85" y="266.23" width="74.64" height="81.91" style="fill:#f9d657"/><rect x="359.47" y="266.23" width="74.64" height="81.91" style="fill:#f1787b"/><path d="M47.41,194.12a9.5,9.5,0,0,1-3.88.67c-4.77,0-7.67-3-7.67-7.56,0-5,3.43-7.94,8-7.94a8.62,8.62,0,0,1,3.66.67l-.6,2.18a7.31,7.31,0,0,0-2.94-.58c-3.06,0-5.26,1.92-5.26,5.53,0,3.3,1.94,5.42,5.24,5.42a7.68,7.68,0,0,0,3-.56Z" style="fill:#414042"/><path d="M49.69,191.58a7.6,7.6,0,0,0,3.63,1c1.76,0,2.74-.82,2.74-2s-.76-1.81-2.68-2.5c-2.48-.89-4.06-2.21-4.06-4.37,0-2.45,2.05-4.33,5.31-4.33a7.93,7.93,0,0,1,3.61.76l-.67,2.21a6.36,6.36,0,0,0-3-.71c-1.74,0-2.5.94-2.5,1.81,0,1.16.87,1.69,2.88,2.47,2.61,1,3.88,2.3,3.88,4.46,0,2.41-1.83,4.51-5.71,4.51a8.94,8.94,0,0,1-4.06-.94Z" style="fill:#414042"/><path d="M61.27,191.58a7.6,7.6,0,0,0,3.63,1c1.76,0,2.74-.82,2.74-2s-.76-1.81-2.67-2.5c-2.48-.89-4.06-2.21-4.06-4.37,0-2.45,2.05-4.33,5.31-4.33a7.93,7.93,0,0,1,3.61.76l-.67,2.21a6.35,6.35,0,0,0-3-.71c-1.74,0-2.5.94-2.5,1.81,0,1.16.87,1.69,2.88,2.47,2.61,1,3.88,2.3,3.88,4.46,0,2.41-1.83,4.51-5.71,4.51a9,9,0,0,1-4.06-.94Z" style="fill:#414042"/><path d="M510.3,260.4v4.67h4.93V260.4h2.13v11.67h-2.13v-5.14H510.3v5.14h-2.13V260.4Z" style="fill:#414042"/><path d="M522,262.18h-3.32V260.4h8.81v1.78h-3.36v9.88H522Z" style="fill:#414042"/><path d="M538.7,267.31c-.07-1.51-.16-3.32-.14-4.9h-.05c-.38,1.42-.87,3-1.39,4.47l-1.69,5.05h-1.64l-1.56-5c-.45-1.49-.87-3.08-1.18-4.53h0c-.05,1.52-.12,3.37-.21,5l-.26,4.69h-2l.78-11.67h2.8l1.52,4.69c.42,1.37.78,2.75,1.07,4h.05c.31-1.26.71-2.7,1.16-4.07l1.61-4.67h2.77l.68,11.67h-2.08Z" style="fill:#414042"/><path d="M543.17,260.4h2.13v9.88h4.79v1.78h-6.92Z" style="fill:#414042"/><rect x="374.41" y="146.06" width="101.57" height="85.04" style="fill:#fff"/><rect x="374.41" y="146.06" width="101.57" height="18.9" style="fill:#f9d657"/><path d="M476,233.46H372v-87.4H476ZM374.41,231.1h99.21V148.43H374.41Z" style="fill:#414042"/><rect x="372.05" y="162.6" width="103.94" height="2.36" style="fill:#414042"/><circle cx="383.7" cy="155.97" r="2.45" style="fill:#406eb5"/><circle cx="391.59" cy="155.97" r="2.45" style="fill:#406eb5"/><circle cx="399.47" cy="155.97" r="2.45" style="fill:#406eb5"/><path d="M397,174.76H385.37a1.31,1.31,0,1,1,0-2.63H397a1.31,1.31,0,1,1,0,2.63Z" style="fill:#414042"/><path d="M402.12,204.62H386a1.31,1.31,0,1,1,0-2.63h16.16a1.31,1.31,0,0,1,0,2.63Z" style="fill:#414042"/><path d="M409.3,181.6H389.87a1.31,1.31,0,0,1,0-2.63H409.3a1.31,1.31,0,0,1,0,2.63Z" style="fill:#414042"/><path d="M403.38,211.62H390.22a1.31,1.31,0,0,1,0-2.63h13.17a1.31,1.31,0,1,1,0,2.63Z" style="fill:#414042"/><path d="M413.34,217.69h-18a1.31,1.31,0,1,1,0-2.63h18a1.31,1.31,0,0,1,0,2.63Z" style="fill:#414042"/><path d="M404.16,223.45H392.92a1.31,1.31,0,0,1,0-2.63h11.24a1.31,1.31,0,1,1,0,2.63Z" style="fill:#414042"/><path d="M424.61,223.45H409.3a1.31,1.31,0,1,1,0-2.63h15.31a1.31,1.31,0,1,1,0,2.63Z" style="fill:#f1787b"/><path d="M458.78,223.45h-28a1.31,1.31,0,1,1,0-2.63h28a1.31,1.31,0,1,1,0,2.63Z" style="fill:#414042"/><path d="M445.54,217.69H417.76a1.31,1.31,0,0,1,0-2.63h27.77a1.31,1.31,0,0,1,0,2.63Z" style="fill:#414042"/><path d="M430.76,211.62h-5.63a1.31,1.31,0,0,1,0-2.63h5.63a1.31,1.31,0,0,1,0,2.63Z" style="fill:#414042"/><path d="M459.62,211.62H435.18a1.31,1.31,0,0,1,0-2.63h24.45a1.31,1.31,0,0,1,0,2.63Z" style="fill:#414042"/><path d="M420.77,211.62H407.6a1.31,1.31,0,0,1,0-2.63h13.17a1.31,1.31,0,0,1,0,2.63Z" style="fill:#f9d657"/><path d="M404.16,187.51H395.7a1.31,1.31,0,0,1,0-2.63h8.47a1.31,1.31,0,1,1,0,2.63Z" style="fill:#414042"/><path d="M421.34,193.74H389.81a1.31,1.31,0,1,1,0-2.63h31.53a1.31,1.31,0,0,1,0,2.63Z" style="fill:#414042"/><path d="M448.65,193.74H427a1.31,1.31,0,0,1,0-2.63h21.62a1.31,1.31,0,0,1,0,2.63Z" style="fill:#414042"/><path d="M456.11,187.51H438.53a1.31,1.31,0,1,1,0-2.63h17.58a1.31,1.31,0,1,1,0,2.63Z" style="fill:#414042"/><path d="M433.56,187.51H408.67a1.31,1.31,0,1,1,0-2.63h24.89a1.31,1.31,0,0,1,0,2.63Z" style="fill:#406eb5"/><path d="M460,181.6H425.92a1.31,1.31,0,0,1,0-2.63H460a1.31,1.31,0,0,1,0,2.63Z" style="fill:#414042"/><path d="M421.33,181.6h-7.15a1.31,1.31,0,0,1,0-2.63h7.15a1.31,1.31,0,0,1,0,2.63Z" style="fill:#f1787b"/><path d="M27.07,294.2h2.55v9.07c0,3.86-1.87,5.15-4.65,5.15a6.79,6.79,0,0,1-2.14-.33l.31-2.05a5.7,5.7,0,0,0,1.58.25c1.45,0,2.35-.66,2.35-3.09Z" style="fill:#414042"/><path d="M32.36,305.41a7,7,0,0,0,3.38.89c1.64,0,2.55-.77,2.55-1.91s-.71-1.68-2.49-2.33C33.5,301.24,32,300,32,298c0-2.28,1.91-4,4.94-4a7.41,7.41,0,0,1,3.36.71l-.62,2.06a5.92,5.92,0,0,0-2.78-.66c-1.62,0-2.33.87-2.33,1.68,0,1.08.81,1.58,2.68,2.3,2.43.91,3.61,2.14,3.61,4.15,0,2.24-1.7,4.19-5.31,4.19a8.29,8.29,0,0,1-3.78-.87Z" style="fill:#414042"/><path d="M445.64,394.33l-6.6,6.6a.86.86,0,0,1-1.22-1.22l6.6-6.6a.86.86,0,0,1,1.22,1.22Z" style="fill:#414042"/><path d="M445.64,400.93a.86.86,0,0,1-1.21,0l-6.6-6.6a.86.86,0,0,1,1.22-1.22l6.6,6.6A.86.86,0,0,1,445.64,400.93Z" style="fill:#414042"/><path d="M48.25,142.75l-8.12,8.12a1.06,1.06,0,0,1-1.5-1.5l8.12-8.12a1.06,1.06,0,0,1,1.5,1.5Z" style="fill:#414042"/><path d="M48.25,150.87a1.05,1.05,0,0,1-1.49,0l-8.12-8.12a1.06,1.06,0,0,1,1.5-1.5l8.12,8.12A1.06,1.06,0,0,1,48.25,150.87Z" style="fill:#414042"/><path d="M486.55,68.88,476.36,79.06a1.33,1.33,0,0,1-1.88-1.88L484.67,67a1.33,1.33,0,0,1,1.88,1.88Z" style="fill:#414042"/><path d="M486.55,79.06a1.32,1.32,0,0,1-1.87,0L474.48,68.88A1.33,1.33,0,0,1,476.36,67l10.19,10.18A1.32,1.32,0,0,1,486.55,79.06Z" style="fill:#414042"/><path d="M196.27,69.57l-8.12,8.12a1.06,1.06,0,0,1-1.5-1.5l8.12-8.12a1.06,1.06,0,0,1,1.5,1.49Z" style="fill:#414042"/><path d="M196.27,77.69a1.05,1.05,0,0,1-1.49,0l-8.12-8.12a1.06,1.06,0,0,1,1.5-1.49l8.12,8.12A1.06,1.06,0,0,1,196.27,77.69Z" style="fill:#414042"/><path d="M536.22,307.62a4.48,4.48,0,1,1,4.48-4.48A4.49,4.49,0,0,1,536.22,307.62Zm0-7.19a2.71,2.71,0,1,0,2.71,2.71A2.71,2.71,0,0,0,536.22,300.42Z" style="fill:#414042"/><path d="M546.63,106.88a4.48,4.48,0,1,1,4.48-4.48A4.49,4.49,0,0,1,546.63,106.88Zm0-7.19a2.71,2.71,0,1,0,2.71,2.71A2.71,2.71,0,0,0,546.63,99.69Z" style="fill:#414042"/><path d="M202.85,50.15a4.48,4.48,0,1,1,4.48-4.48A4.49,4.49,0,0,1,202.85,50.15Zm0-7.19a2.71,2.71,0,1,0,2.71,2.71A2.71,2.71,0,0,0,202.85,43Z" style="fill:#414042"/><path d="M22.83,240.31a4.48,4.48,0,1,1,4.48-4.48A4.49,4.49,0,0,1,22.83,240.31Zm0-7.19a2.71,2.71,0,1,0,2.71,2.71A2.71,2.71,0,0,0,22.83,233.12Z" style="fill:#414042"/><path d="M29.62,76.75a4.48,4.48,0,1,1,4.48-4.48A4.49,4.49,0,0,1,29.62,76.75Zm0-7.19a2.71,2.71,0,1,0,2.71,2.71A2.71,2.71,0,0,0,29.62,69.56Z" style="fill:#414042"/><path d="M341.36,152.85a5.69,5.69,0,1,1,5.69-5.69A5.7,5.7,0,0,1,341.36,152.85Zm0-9.14a3.44,3.44,0,1,0,3.44,3.44A3.45,3.45,0,0,0,341.36,143.71Z" style="fill:#414042"/><path d="M346.34,211.81a6.91,6.91,0,0,1-6.9,6.91H218.25a6.91,6.91,0,0,1-6.9-6.91V184.2a6.9,6.9,0,0,1,6.9-6.9H339.44a6.9,6.9,0,0,1,6.9,6.9Z" style="fill:#fff"/><path d="M339.44,219.77H218.25a8,8,0,0,1-8-8V184.2a8,8,0,0,1,8-7.95H339.44a8,8,0,0,1,7.95,7.95v27.62A8,8,0,0,1,339.44,219.77ZM218.25,178.34a5.86,5.86,0,0,0-5.86,5.86v27.62a5.87,5.87,0,0,0,5.86,5.86H339.44a5.87,5.87,0,0,0,5.85-5.86V184.2a5.86,5.86,0,0,0-5.85-5.86Z" style="fill:#414042"/><path d="M295,184.11H257.11a1,1,0,0,1,0-2.09H295a1,1,0,0,1,0,2.09Z" style="fill:#414042"/><path d="M217.26,204.82a1,1,0,0,1-1-1V190a8,8,0,0,1,7.95-8h24.2a1,1,0,0,1,0,2.09h-24.2a5.86,5.86,0,0,0-5.86,5.86v13.81A1,1,0,0,1,217.26,204.82Z" style="fill:#414042"/><path d="M261.19,199.43l11.89-5.77v2.26l-9.43,4.39v.05l9.43,4.42V207l-11.89-5.77Z" style="fill:#58595b"/><path d="M274.82,208l6.12-18.18h2.16L277,208Z" style="fill:#58595b"/><path d="M296.5,201.28,284.61,207v-2.24l9.58-4.42v-.05l-9.58-4.42v-2.23l11.89,5.72Z" style="fill:#58595b"/><circle cx="271.16" cy="101.68" r="42.3" style="fill:#fff"/><path d="M271.16,145.16a43.48,43.48,0,1,1,43.47-43.48A43.53,43.53,0,0,1,271.16,145.16Zm0-84.59a41.11,41.11,0,1,0,41.11,41.11A41.16,41.16,0,0,0,271.16,60.57Z" style="fill:#414042"/><path d="M308.47,101.68a37.31,37.31,0,1,1-37.31-37.31A37.31,37.31,0,0,1,308.47,101.68Z" style="fill:#f9d657"/><circle cx="271.31" cy="101.83" r="28.8" style="fill:#fade79"/><path d="M271.16,140.17a38.49,38.49,0,1,1,38.49-38.49A38.54,38.54,0,0,1,271.16,140.17Zm0-74.62a36.13,36.13,0,1,0,36.13,36.13A36.17,36.17,0,0,0,271.16,65.55Z" style="fill:#414042"/><path d="M242.48,93.12a1.16,1.16,0,0,1-.37-.06,1.18,1.18,0,0,1-.75-1.49,31,31,0,0,1,18.4-19.22,1.18,1.18,0,1,1,.84,2.21,28.6,28.6,0,0,0-17,17.76A1.18,1.18,0,0,1,242.48,93.12Z" style="fill:#414042"/><path d="M271.65,102.36a1.18,1.18,0,0,1-1.18-1.18V70.47a1.18,1.18,0,0,1,2.36,0v30.71A1.18,1.18,0,0,1,271.65,102.36Z" style="fill:#414042"/><path d="M296.46,103.54h-26a1.18,1.18,0,0,1,0-2.36h26a1.18,1.18,0,1,1,0,2.36Z" style="fill:#414042"/><circle cx="271.05" cy="102.86" r="4.41" style="fill:#414042"/><path d="M337,81l.89-.13,1-.1.93-.05.83,0a9.32,9.32,0,0,1,1.74.16,4.76,4.76,0,0,1,1.53.56,3,3,0,0,1,1.08,1.09,3.4,3.4,0,0,1,.41,1.74,4.13,4.13,0,0,1-.72,2.52,3.71,3.71,0,0,1-1.93,1.35l.88.56,2.88,4.81h-2.84l-2.86-4.93-1.3-.23v5.17H337Zm3.78,1.89-.75,0a2.84,2.84,0,0,0-.57.07v3.65h1a2.63,2.63,0,0,0,1.64-.47,1.83,1.83,0,0,0,.61-1.55,1.63,1.63,0,0,0-.5-1.27A2.12,2.12,0,0,0,340.73,82.85Z" style="fill:#414042"/><path d="M354.63,80.83H357V89a6.12,6.12,0,0,1-.32,2.11,4,4,0,0,1-.9,1.46,3.47,3.47,0,0,1-1.4.85,5.83,5.83,0,0,1-1.82.27q-4.79,0-4.79-4.37V80.83h2.47v8a5,5,0,0,0,.13,1.25,1.93,1.93,0,0,0,.42.83,1.6,1.6,0,0,0,.72.45,3.38,3.38,0,0,0,1,.14,2,2,0,0,0,1.64-.63,3.27,3.27,0,0,0,.5-2Z" style="fill:#414042"/><path d="M367.55,83.77a3.84,3.84,0,0,1-.12.94,2.58,2.58,0,0,1-.39.85,2.73,2.73,0,0,1-.7.68,3.07,3.07,0,0,1-1,.44v.11a4.23,4.23,0,0,1,1,.31,2.63,2.63,0,0,1,.85.59,2.74,2.74,0,0,1,.57.92,3.58,3.58,0,0,1,.21,1.28,3.29,3.29,0,0,1-.41,1.68,3.42,3.42,0,0,1-1.11,1.16,5.09,5.09,0,0,1-1.58.67,7.61,7.61,0,0,1-1.82.22h-.78l-1,0-1.12-.08a8,8,0,0,1-1-.16V80.92l.78-.11.95-.09,1-.05,1.05,0a10.8,10.8,0,0,1,1.72.13,4.9,4.9,0,0,1,1.49.48,2.74,2.74,0,0,1,1.05,1A2.8,2.8,0,0,1,367.55,83.77Zm-5.31,2.36.58,0,.55-.05a3.26,3.26,0,0,0,1.18-.64,1.41,1.41,0,0,0,.5-1.12,1.48,1.48,0,0,0-.18-.77,1.36,1.36,0,0,0-.48-.48,2,2,0,0,0-.67-.25,4.28,4.28,0,0,0-.79-.07l-.86,0a5.46,5.46,0,0,0-.61.05v3.33Zm.81,5.42a3.53,3.53,0,0,0,.87-.11,2.3,2.3,0,0,0,.75-.33,1.74,1.74,0,0,0,.52-.56,1.56,1.56,0,0,0,.2-.8,1.61,1.61,0,0,0-.23-.93,1.58,1.58,0,0,0-.61-.53,2.53,2.53,0,0,0-.85-.24,8.24,8.24,0,0,0-.94-.05h-1.31v3.44a1.1,1.1,0,0,0,.29.05l.42,0,.47,0Z" style="fill:#414042"/><path d="M372.74,88.75l-4.14-7.92h2.93l2.3,4.73.25,1.33h.09l.27-1.37,2.23-4.7h2.65l-4.12,7.9v4.7h-2.47Z" style="fill:#414042"/></svg>