<svg id="Layer_1" data-name="Layer 1" xmlns="http://www.w3.org/2000/svg" viewBox="0 0 128 128"><title>Artboard 1</title><circle cx="64" cy="64" r="11.4" style="fill:#61dafb"/><path d="M107.3,45.2c-2.2-.8-4.5-1.6-6.9-2.3.6-2.4,1.1-4.8,1.5-7.1,2.1-13.2-.2-22.5-6.6-26.1a12.42,12.42,0,0,0-6.4-1.6C81.9,8.1,73,13.3,64,22,55,13.3,46.1,8.1,39.1,8.1a12.42,12.42,0,0,0-6.4,1.6c-6.4,3.7-8.7,13-6.6,26.1.4,2.3.9,4.7,1.5,7.1a69.74,69.74,0,0,0-6.9,2.3C8.2,50,1.4,56.6,1.4,64S8.3,78,20.7,82.8c2.2.8,4.5,1.6,6.9,2.3-.6,2.4-1.1,4.8-1.5,7.1-2.1,13.2.2,22.5,6.6,26.1a12.42,12.42,0,0,0,6.4,1.6c7.1,0,16-5.2,24.9-13.9,9,8.7,17.9,13.9,24.9,13.9a12.42,12.42,0,0,0,6.4-1.6c6.4-3.7,8.7-13,6.6-26.1-.4-2.3-.9-4.7-1.5-7.1a69.74,69.74,0,0,0,6.9-2.3C119.8,78,126.6,71.4,126.6,64S119.8,50,107.3,45.2ZM92.5,14.7c4.1,2.4,5.5,9.8,3.8,20.3a60.22,60.22,0,0,1-1.4,6.6,118.8,118.8,0,0,0-16.5-2.5A144.28,144.28,0,0,0,68,26.1c7.4-7.3,14.9-12.3,21-12.3A6.76,6.76,0,0,1,92.5,14.7ZM81.3,74c-1.8,3.2-3.9,6.4-6.1,9.6-3.7.3-7.4.4-11.2.4s-7.6-.1-11.2-.4q-3.3-4.8-6-9.6c-1.9-3.3-3.7-6.7-5.3-10,1.6-3.3,3.4-6.7,5.3-10s3.9-6.4,6.1-9.6c3.7-.3,7.4-.4,11.2-.4s7.6.1,11.2.4q3.3,4.8,6,9.6c1.9,3.3,3.7,6.7,5.3,10C84.9,67.3,83.2,70.6,81.3,74Zm8.3-3.3c1.5,3.5,2.7,6.9,3.8,10.3-3.4.8-7,1.4-10.8,1.9,1.2-1.9,2.5-3.9,3.6-6S88.5,72.7,89.6,70.7ZM64,97.8c-2.4-2.6-4.7-5.4-6.9-8.3,2.3.1,4.6.2,6.9.2s4.6-.1,6.9-.2C68.7,92.4,66.4,95.2,64,97.8Zm-18.6-15c-3.8-.5-7.4-1.1-10.8-1.9,1.1-3.3,2.3-6.8,3.8-10.3,1.1,2,2.2,4.1,3.4,6.1C43,78.9,44.2,80.8,45.4,82.8Zm-7-25.5c-1.5-3.5-2.7-6.9-3.8-10.3,3.4-.8,7-1.4,10.8-1.9-1.2,1.9-2.5,3.9-3.6,6S39.5,55.3,38.4,57.3ZM64,30.2c2.4,2.6,4.7,5.4,6.9,8.3-2.3-.1-4.6-.2-6.9-.2s-4.6.1-6.9.2C59.3,35.6,61.6,32.8,64,30.2Zm22.2,21-3.6-6c3.8.5,7.4,1.1,10.8,1.9-1.1,3.3-2.3,6.8-3.8,10.3C88.5,55.3,87.4,53.2,86.2,51.2ZM31.7,35c-1.7-10.5-.3-17.9,3.8-20.3a6.76,6.76,0,0,1,3.5-.9c6,0,13.5,4.9,21,12.3a131.45,131.45,0,0,0-10.4,13,136,136,0,0,0-16.5,2.5C32.5,39.3,32.1,37.1,31.7,35ZM7,64c0-4.7,5.7-9.7,15.7-13.4a60,60,0,0,1,6.4-2.1,145.76,145.76,0,0,0,6,15.6,126,126,0,0,0-6,15.5C15.3,75.6,7,69.6,7,64Zm28.5,49.3c-4.1-2.4-5.5-9.8-3.8-20.3a60.22,60.22,0,0,1,1.4-6.6,118.81,118.81,0,0,0,16.5,2.5,144.28,144.28,0,0,0,10.4,13c-7.4,7.3-14.9,12.3-21,12.3A6.76,6.76,0,0,1,35.5,113.3ZM96.3,93c1.7,10.5.3,17.9-3.8,20.3a6.76,6.76,0,0,1-3.5.9c-6,0-13.5-4.9-21-12.3a131.45,131.45,0,0,0,10.4-13,136,136,0,0,0,16.5-2.5C95.5,88.7,95.9,90.9,96.3,93Zm9-15.6a60,60,0,0,1-6.4,2.1,145.76,145.76,0,0,0-6-15.6,126,126,0,0,0,6-15.5c13.8,4,22.1,10,22.1,15.6C121,68.7,115.2,73.7,105.3,77.4Z" style="fill:#61dafb"/></svg>