<svg id="Layer_1" data-name="Layer 1" xmlns="http://www.w3.org/2000/svg" viewBox="0 0 620 486"><title>Artboard 68</title><rect x="427.57" y="159.68" width="61.25" height="5.99" style="fill:#ef787a"/><rect x="399.99" y="170.72" width="81.31" height="5.99" style="fill:#ef787a"/><rect x="431.87" y="181.48" width="79.16" height="5.99" style="fill:#ef787a"/><rect x="159.57" y="124.45" width="61.25" height="5.99" style="fill:#ef787a"/><rect x="235.51" y="124.45" width="27.58" height="5.99" style="fill:#ef787a"/><rect x="131.99" y="135.2" width="81.31" height="5.99" style="fill:#ef787a"/><path d="M576.58,408.83H473.1v37.5H576.58ZM481,438.47h-6v-9h6Zm0-14.6h-6v-9h6Zm8.61,14.6h-6v-9h6Zm0-14.6h-6v-9h6Zm12.92,14.6h-6v-9h6Zm0-14.6h-6v-9h6Zm8.61,14.6h-6v-9h6Zm0-14.6h-6v-9h6ZM524,438.47h-6v-9h6Zm0-14.6h-6v-9h6Zm8.61,14.6h-6v-9h6Zm0-14.6h-6v-9h6Zm12.92,14.6h-6v-9h6Zm0-14.6h-6v-9h6Zm8.61,14.6h-6v-9h6Zm0-14.6h-6v-9h6Zm12.92,14.6h-6v-9h6Zm0-14.6h-6v-9h6Zm8.61,14.6h-6v-9h6Zm0-14.6h-6v-9h6Z" style="fill:none"/><path d="M284.76,427.83c3-4.57,10-14.48,18.35-21.89-8.8-.23-23.68.56-36.8,6.87l-1.36.65-1.33-.7c-.14-.08-14.8-7.68-24.28-5.25l-5.59,1.43,8.51-22.5c-8.7-1.6-33.11-4.34-51.33,10.32l-3.35,2.7-1.37-4.08c0-.11-4-11.67-14.87-24.13-13.1-15.05-30.07-24.9-50.5-29.33l28.31,45.93-11.29-7.43a124.52,124.52,0,0,0-44.28-16.1l17,30.25-10.44-7c-.17-.11-16.59-10.72-46.84-8.21l13,12.12v15.73l-10.72,11-5.07,1.63,6.42,12.6H45.54v13.86H312.18V432.46H281.72ZM109.58,444h-6v-7.49h6Zm19.22-26.21H103.09v-6H128.8Zm39.93,0H143v-6h25.71Zm14.23-6h25.71v6H183ZM209.42,444h-6v-7.49h6Zm39.18-15.72H222.89v-6H248.6ZM268.07,444h-6v-7.49h6Zm7.49-15.72H256.84v-6h18.72Z" style="fill:none"/><path d="M348.61,246.07l22,4.54v6.12h34.94l.85-38.28A103.27,103.27,0,0,0,348.61,246.07Z" style="fill:none"/><polygon points="456.71 291.21 462.7 291.21 462.7 128.72 381.48 128.72 381.48 213.63 387.47 213.63 387.47 134.71 456.71 134.71 456.71 291.21" style="fill:#406eb5"/><polygon points="137.01 256.4 147.94 256.4 150.48 212.24 140.45 212.24 140.45 190.65 132 190.65 132 164.05 124.14 164.05 124.14 190.65 115.69 190.65 115.69 212.24 105.65 212.24 108.19 256.4 119.13 256.4 119.13 331.89 125.12 331.89 125.12 250.41 113.85 250.41 112 218.23 121.68 218.23 121.68 196.64 134.46 196.64 134.46 218.23 144.14 218.23 142.29 250.41 131.02 250.41 131.02 334.64 137.01 334.64 137.01 256.4" style="fill:#406eb5"/><path d="M223.89,215.1H173.74a13.4,13.4,0,0,0-13.38,13.38V349.12h6V228.49a7.4,7.4,0,0,1,7.39-7.39h50.15Z" style="fill:#406eb5"/><path d="M303.71,98.19H293.31V94.68C294,75,294,74.79,293.59,74l-.8-1.76h-5.42V54.39h-5.94V27.66H270.25V54.39h-6.68V72.21h-5.94v26H245.75v12.62H227.93V375.33h6V116.8h17.82V104.18h11.88v-26h5.94V60.38h11.83V78.2h6.47c-.09,3.64-.31,10.27-.53,16.32v9.67h10.39V116.8H317v277h6v-283h-19.3Z" style="fill:#406eb5"/><polygon points="504.98 399.53 504.98 351.36 499.82 351.36 499.82 324.37 493.72 324.37 493.72 294.55 443.13 294.55 443.13 324.37 437.02 324.37 437.02 351.36 431.86 351.36 431.86 394.48 437.85 394.48 437.85 357.35 443.01 357.35 443.01 330.36 449.12 330.36 449.12 300.54 487.73 300.54 487.73 330.36 493.83 330.36 493.83 357.35 498.99 357.35 498.99 399.53 504.98 399.53" style="fill:#406eb5"/><polygon points="327.47 403.61 439.33 403.61 439.33 446.32 330.71 446.32 330.71 452.31 445.32 452.31 445.32 397.62 327.47 397.62 327.47 403.61" style="fill:#406eb5"/><path d="M318.17,426.47H293c4.56-6.34,12-15.43,19.88-20.44l6.87-4.35-8-1.15c-1-.15-25.18-3.45-46.61,6.25-3.5-1.67-13.08-5.8-21.91-5.73l7.13-18.84-3.18-.87c-1.36-.37-32.27-8.52-56.71,8.35a91.93,91.93,0,0,0-14.33-22.18c-10.62-12.27-29.8-27.92-60.83-32.75l-6.42-1,15,24.33h-5.48v5.49h6v-4.67L131,369.84a130.32,130.32,0,0,0-42.67-12.25L82.63,357l12,21.29C85.34,374.82,69,371,46.11,374.12l-6.24.86,20.44,19.1v10.69l-8,8.22L42,416.31l5.18,10.16h-7.6v14.9h-7v10.94H327V441.37h-8.88Zm-6,19.85H45.54V432.46H56.93l-6.42-12.6,5.07-1.63,10.72-11V391.47l-13-12.12c30.25-2.51,46.67,8.1,46.84,8.21l10.44,7-17-30.25a124.52,124.52,0,0,1,44.28,16.1l11.29,7.43-28.31-45.93c20.43,4.43,37.39,14.28,50.5,29.33,10.84,12.46,14.83,24,14.87,24.13l1.37,4.08,3.35-2.7c18.21-14.65,42.63-11.91,51.33-10.32l-8.51,22.5,5.59-1.43c9.48-2.43,24.13,5.18,24.28,5.25l1.33.7,1.36-.65c13.13-6.31,28-7.1,36.8-6.87-8.4,7.41-15.35,17.32-18.35,21.89l-3,4.64h30.46Z" style="fill:#406eb5"/><path d="M467.11,452.31H582.58V402.84H467.11Zm6-43.49H576.58v37.5H473.1Z" style="fill:#406eb5"/><rect x="262.08" y="436.47" width="5.99" height="7.49" style="fill:#406eb5"/><rect x="203.43" y="436.47" width="5.99" height="7.49" style="fill:#406eb5"/><rect x="103.59" y="436.47" width="5.99" height="7.49" style="fill:#406eb5"/><rect x="103.09" y="411.76" width="25.71" height="5.99" style="fill:#406eb5"/><rect x="143.03" y="411.76" width="25.71" height="5.99" style="fill:#406eb5"/><rect x="182.96" y="411.76" width="25.71" height="5.99" style="fill:#406eb5"/><rect x="222.89" y="422.24" width="25.71" height="5.99" style="fill:#406eb5"/><rect x="256.84" y="422.24" width="18.72" height="5.99" style="fill:#406eb5"/><rect x="172.98" y="225.57" width="6.39" height="5.99" style="fill:#406eb5"/><rect x="184.05" y="225.57" width="6.39" height="5.99" style="fill:#406eb5"/><rect x="195.12" y="225.57" width="6.39" height="5.99" style="fill:#406eb5"/><rect x="206.19" y="225.57" width="6.39" height="5.99" style="fill:#406eb5"/><rect x="217.26" y="225.57" width="6.39" height="5.99" style="fill:#406eb5"/><rect x="172.98" y="234.56" width="6.39" height="5.99" style="fill:#406eb5"/><rect x="184.05" y="234.56" width="6.39" height="5.99" style="fill:#406eb5"/><rect x="195.12" y="234.56" width="6.39" height="5.99" style="fill:#406eb5"/><rect x="206.19" y="234.56" width="6.39" height="5.99" style="fill:#406eb5"/><rect x="217.26" y="234.56" width="6.39" height="5.99" style="fill:#406eb5"/><rect x="172.98" y="243.54" width="6.39" height="5.99" style="fill:#406eb5"/><rect x="184.05" y="243.54" width="6.39" height="5.99" style="fill:#406eb5"/><rect x="195.12" y="243.54" width="6.39" height="5.99" style="fill:#406eb5"/><rect x="206.19" y="243.54" width="6.39" height="5.99" style="fill:#406eb5"/><rect x="217.26" y="243.54" width="6.39" height="5.99" style="fill:#406eb5"/><rect x="172.98" y="252.53" width="6.39" height="5.99" style="fill:#406eb5"/><rect x="184.05" y="252.53" width="6.39" height="5.99" style="fill:#406eb5"/><rect x="195.12" y="252.53" width="6.39" height="5.99" style="fill:#406eb5"/><rect x="206.19" y="252.53" width="6.39" height="5.99" style="fill:#406eb5"/><rect x="217.26" y="252.53" width="6.39" height="5.99" style="fill:#406eb5"/><rect x="172.98" y="261.51" width="6.39" height="5.99" style="fill:#406eb5"/><rect x="184.05" y="261.51" width="6.39" height="5.99" style="fill:#406eb5"/><rect x="195.12" y="261.51" width="6.39" height="5.99" style="fill:#406eb5"/><rect x="206.19" y="261.51" width="6.39" height="5.99" style="fill:#406eb5"/><rect x="217.26" y="261.51" width="6.39" height="5.99" style="fill:#406eb5"/><rect x="172.98" y="270.5" width="6.39" height="5.99" style="fill:#406eb5"/><rect x="184.05" y="270.5" width="6.39" height="5.99" style="fill:#406eb5"/><rect x="195.12" y="270.5" width="6.39" height="5.99" style="fill:#406eb5"/><rect x="206.19" y="270.5" width="6.39" height="5.99" style="fill:#406eb5"/><rect x="217.26" y="270.5" width="6.39" height="5.99" style="fill:#406eb5"/><rect x="172.98" y="279.48" width="6.39" height="5.99" style="fill:#406eb5"/><rect x="184.05" y="279.48" width="6.39" height="5.99" style="fill:#406eb5"/><rect x="195.12" y="279.48" width="6.39" height="5.99" style="fill:#406eb5"/><rect x="206.19" y="279.48" width="6.39" height="5.99" style="fill:#406eb5"/><rect x="217.26" y="279.48" width="6.39" height="5.99" style="fill:#406eb5"/><rect x="172.98" y="288.47" width="6.39" height="5.99" style="fill:#406eb5"/><rect x="184.05" y="288.47" width="6.39" height="5.99" style="fill:#406eb5"/><rect x="195.12" y="288.47" width="6.39" height="5.99" style="fill:#406eb5"/><rect x="206.19" y="288.47" width="6.39" height="5.99" style="fill:#406eb5"/><rect x="217.26" y="288.47" width="6.39" height="5.99" style="fill:#406eb5"/><rect x="172.98" y="297.45" width="6.39" height="5.99" style="fill:#406eb5"/><rect x="184.05" y="297.45" width="6.39" height="5.99" style="fill:#406eb5"/><rect x="195.12" y="297.45" width="6.39" height="5.99" style="fill:#406eb5"/><rect x="206.19" y="297.45" width="6.39" height="5.99" style="fill:#406eb5"/><rect x="217.26" y="297.45" width="6.39" height="5.99" style="fill:#406eb5"/><rect x="172.98" y="306.44" width="6.39" height="5.99" style="fill:#406eb5"/><rect x="184.05" y="306.44" width="6.39" height="5.99" style="fill:#406eb5"/><rect x="195.12" y="306.44" width="6.39" height="5.99" style="fill:#406eb5"/><rect x="206.19" y="306.44" width="6.39" height="5.99" style="fill:#406eb5"/><rect x="217.26" y="306.44" width="6.39" height="5.99" style="fill:#406eb5"/><rect x="172.98" y="315.42" width="6.39" height="5.99" style="fill:#406eb5"/><rect x="184.05" y="315.42" width="6.39" height="5.99" style="fill:#406eb5"/><rect x="195.12" y="315.42" width="6.39" height="5.99" style="fill:#406eb5"/><rect x="206.19" y="315.42" width="6.39" height="5.99" style="fill:#406eb5"/><rect x="217.26" y="315.42" width="6.39" height="5.99" style="fill:#406eb5"/><rect x="172.98" y="324.41" width="6.39" height="5.99" style="fill:#406eb5"/><rect x="184.05" y="324.41" width="6.39" height="5.99" style="fill:#406eb5"/><rect x="195.12" y="324.41" width="6.39" height="5.99" style="fill:#406eb5"/><rect x="206.19" y="324.41" width="6.39" height="5.99" style="fill:#406eb5"/><rect x="217.26" y="324.41" width="6.39" height="5.99" style="fill:#406eb5"/><rect x="172.98" y="333.39" width="6.39" height="5.99" style="fill:#406eb5"/><rect x="184.05" y="333.39" width="6.39" height="5.99" style="fill:#406eb5"/><rect x="195.12" y="333.39" width="6.39" height="5.99" style="fill:#406eb5"/><rect x="206.19" y="333.39" width="6.39" height="5.99" style="fill:#406eb5"/><rect x="217.26" y="333.39" width="6.39" height="5.99" style="fill:#406eb5"/><rect x="172.98" y="342.38" width="6.39" height="5.99" style="fill:#406eb5"/><rect x="184.05" y="342.38" width="6.39" height="5.99" style="fill:#406eb5"/><rect x="195.12" y="342.38" width="6.39" height="5.99" style="fill:#406eb5"/><rect x="206.19" y="342.38" width="6.39" height="5.99" style="fill:#406eb5"/><rect x="217.26" y="342.38" width="6.39" height="5.99" style="fill:#406eb5"/><rect x="172.98" y="351.36" width="6.39" height="5.99" style="fill:#406eb5"/><rect x="184.05" y="351.36" width="6.39" height="5.99" style="fill:#406eb5"/><rect x="195.12" y="351.36" width="6.39" height="5.99" style="fill:#406eb5"/><rect x="206.19" y="351.36" width="6.39" height="5.99" style="fill:#406eb5"/><rect x="217.26" y="351.36" width="6.39" height="5.99" style="fill:#406eb5"/><rect x="184.05" y="360.35" width="6.39" height="5.99" style="fill:#406eb5"/><rect x="195.12" y="360.35" width="6.39" height="5.99" style="fill:#406eb5"/><rect x="206.19" y="360.35" width="6.39" height="5.99" style="fill:#406eb5"/><rect x="217.26" y="360.35" width="6.39" height="5.99" style="fill:#406eb5"/><rect x="184.05" y="369.33" width="6.39" height="5.99" style="fill:#406eb5"/><rect x="195.12" y="369.33" width="6.39" height="5.99" style="fill:#406eb5"/><rect x="206.19" y="369.33" width="6.39" height="5.99" style="fill:#406eb5"/><rect x="217.26" y="369.33" width="6.39" height="5.99" style="fill:#406eb5"/><rect x="239.87" y="123.49" width="10.82" height="5.99" style="fill:#406eb5"/><rect x="260.39" y="123.49" width="10.82" height="5.99" style="fill:#406eb5"/><rect x="280.91" y="123.49" width="10.82" height="5.99" style="fill:#406eb5"/><rect x="301.43" y="123.49" width="10.82" height="5.99" style="fill:#406eb5"/><rect x="239.87" y="133.23" width="10.82" height="5.99" style="fill:#406eb5"/><rect x="260.39" y="133.23" width="10.82" height="5.99" style="fill:#406eb5"/><rect x="280.91" y="133.23" width="10.82" height="5.99" style="fill:#406eb5"/><rect x="301.43" y="133.23" width="10.82" height="5.99" style="fill:#406eb5"/><rect x="239.87" y="142.96" width="10.82" height="5.99" style="fill:#406eb5"/><rect x="260.39" y="142.96" width="10.82" height="5.99" style="fill:#406eb5"/><rect x="280.91" y="142.96" width="10.82" height="5.99" style="fill:#406eb5"/><rect x="301.43" y="142.96" width="10.82" height="5.99" style="fill:#406eb5"/><rect x="239.87" y="152.7" width="10.82" height="5.99" style="fill:#406eb5"/><rect x="260.39" y="152.7" width="10.82" height="5.99" style="fill:#406eb5"/><rect x="280.91" y="152.7" width="10.82" height="5.99" style="fill:#406eb5"/><rect x="301.43" y="152.7" width="10.82" height="5.99" style="fill:#406eb5"/><rect x="239.87" y="162.43" width="10.82" height="5.99" style="fill:#406eb5"/><rect x="260.39" y="162.43" width="10.82" height="5.99" style="fill:#406eb5"/><rect x="280.91" y="162.43" width="10.82" height="5.99" style="fill:#406eb5"/><rect x="301.43" y="162.43" width="10.82" height="5.99" style="fill:#406eb5"/><rect x="239.87" y="172.16" width="10.82" height="5.99" style="fill:#406eb5"/><rect x="260.39" y="172.16" width="10.82" height="5.99" style="fill:#406eb5"/><rect x="280.91" y="172.16" width="10.82" height="5.99" style="fill:#406eb5"/><rect x="301.43" y="172.16" width="10.82" height="5.99" style="fill:#406eb5"/><rect x="239.87" y="181.9" width="10.82" height="5.99" style="fill:#406eb5"/><rect x="260.39" y="181.9" width="10.82" height="5.99" style="fill:#406eb5"/><rect x="280.91" y="181.9" width="10.82" height="5.99" style="fill:#406eb5"/><rect x="301.43" y="181.9" width="10.82" height="5.99" style="fill:#406eb5"/><rect x="239.87" y="191.63" width="10.82" height="5.99" style="fill:#406eb5"/><rect x="260.39" y="191.63" width="10.82" height="5.99" style="fill:#406eb5"/><rect x="280.91" y="191.63" width="10.82" height="5.99" style="fill:#406eb5"/><rect x="301.43" y="191.63" width="10.82" height="5.99" style="fill:#406eb5"/><rect x="239.87" y="201.36" width="10.82" height="5.99" style="fill:#406eb5"/><rect x="260.39" y="201.36" width="10.82" height="5.99" style="fill:#406eb5"/><rect x="280.91" y="201.36" width="10.82" height="5.99" style="fill:#406eb5"/><rect x="301.43" y="201.36" width="10.82" height="5.99" style="fill:#406eb5"/><rect x="239.87" y="211.1" width="10.82" height="5.99" style="fill:#406eb5"/><rect x="260.39" y="211.1" width="10.82" height="5.99" style="fill:#406eb5"/><rect x="280.91" y="211.1" width="10.82" height="5.99" style="fill:#406eb5"/><rect x="301.43" y="211.1" width="10.82" height="5.99" style="fill:#406eb5"/><rect x="239.87" y="220.83" width="10.82" height="5.99" style="fill:#406eb5"/><rect x="260.39" y="220.83" width="10.82" height="5.99" style="fill:#406eb5"/><rect x="280.91" y="220.83" width="10.82" height="5.99" style="fill:#406eb5"/><rect x="301.43" y="220.83" width="10.82" height="5.99" style="fill:#406eb5"/><rect x="239.87" y="230.57" width="10.82" height="5.99" style="fill:#406eb5"/><rect x="260.39" y="230.57" width="10.82" height="5.99" style="fill:#406eb5"/><rect x="280.91" y="230.57" width="10.82" height="5.99" style="fill:#406eb5"/><rect x="301.43" y="230.57" width="10.82" height="5.99" style="fill:#406eb5"/><rect x="239.87" y="240.3" width="10.82" height="5.99" style="fill:#406eb5"/><rect x="260.39" y="240.3" width="10.82" height="5.99" style="fill:#406eb5"/><rect x="280.91" y="240.3" width="10.82" height="5.99" style="fill:#406eb5"/><rect x="301.43" y="240.3" width="10.82" height="5.99" style="fill:#406eb5"/><rect x="239.87" y="250.03" width="10.82" height="5.99" style="fill:#406eb5"/><rect x="260.39" y="250.03" width="10.82" height="5.99" style="fill:#406eb5"/><rect x="280.91" y="250.03" width="10.82" height="5.99" style="fill:#406eb5"/><rect x="301.43" y="250.03" width="10.82" height="5.99" style="fill:#406eb5"/><rect x="239.87" y="259.77" width="10.82" height="5.99" style="fill:#406eb5"/><rect x="260.39" y="259.77" width="10.82" height="5.99" style="fill:#406eb5"/><rect x="280.91" y="259.77" width="10.82" height="5.99" style="fill:#406eb5"/><rect x="301.43" y="259.77" width="10.82" height="5.99" style="fill:#406eb5"/><rect x="239.87" y="269.5" width="10.82" height="5.99" style="fill:#406eb5"/><rect x="260.39" y="269.5" width="10.82" height="5.99" style="fill:#406eb5"/><rect x="280.91" y="269.5" width="10.82" height="5.99" style="fill:#406eb5"/><rect x="301.43" y="269.5" width="10.82" height="5.99" style="fill:#406eb5"/><rect x="239.87" y="279.23" width="10.82" height="5.99" style="fill:#406eb5"/><rect x="260.39" y="279.23" width="10.82" height="5.99" style="fill:#406eb5"/><rect x="280.91" y="279.23" width="10.82" height="5.99" style="fill:#406eb5"/><rect x="301.43" y="279.23" width="10.82" height="5.99" style="fill:#406eb5"/><rect x="239.87" y="288.97" width="10.82" height="5.99" style="fill:#406eb5"/><rect x="260.39" y="288.97" width="10.82" height="5.99" style="fill:#406eb5"/><rect x="280.91" y="288.97" width="10.82" height="5.99" style="fill:#406eb5"/><rect x="301.43" y="288.97" width="10.82" height="5.99" style="fill:#406eb5"/><rect x="239.87" y="298.7" width="10.82" height="5.99" style="fill:#406eb5"/><rect x="260.39" y="298.7" width="10.82" height="5.99" style="fill:#406eb5"/><rect x="280.91" y="298.7" width="10.82" height="5.99" style="fill:#406eb5"/><rect x="301.43" y="298.7" width="10.82" height="5.99" style="fill:#406eb5"/><rect x="239.87" y="308.43" width="10.82" height="5.99" style="fill:#406eb5"/><rect x="260.39" y="308.43" width="10.82" height="5.99" style="fill:#406eb5"/><rect x="280.91" y="308.43" width="10.82" height="5.99" style="fill:#406eb5"/><rect x="301.43" y="308.43" width="10.82" height="5.99" style="fill:#406eb5"/><rect x="239.87" y="318.17" width="10.82" height="5.99" style="fill:#406eb5"/><rect x="260.39" y="318.17" width="10.82" height="5.99" style="fill:#406eb5"/><rect x="280.91" y="318.17" width="10.82" height="5.99" style="fill:#406eb5"/><rect x="301.43" y="318.17" width="10.82" height="5.99" style="fill:#406eb5"/><rect x="239.87" y="327.9" width="10.82" height="5.99" style="fill:#406eb5"/><rect x="260.39" y="327.9" width="10.82" height="5.99" style="fill:#406eb5"/><rect x="280.91" y="327.9" width="10.82" height="5.99" style="fill:#406eb5"/><rect x="301.43" y="327.9" width="10.82" height="5.99" style="fill:#406eb5"/><rect x="239.87" y="337.64" width="10.82" height="5.99" style="fill:#406eb5"/><rect x="260.39" y="337.64" width="10.82" height="5.99" style="fill:#406eb5"/><rect x="280.91" y="337.64" width="10.82" height="5.99" style="fill:#406eb5"/><rect x="301.43" y="337.64" width="10.82" height="5.99" style="fill:#406eb5"/><rect x="239.87" y="347.37" width="10.82" height="5.99" style="fill:#406eb5"/><rect x="260.39" y="347.37" width="10.82" height="5.99" style="fill:#406eb5"/><rect x="280.91" y="347.37" width="10.82" height="5.99" style="fill:#406eb5"/><rect x="301.43" y="347.37" width="10.82" height="5.99" style="fill:#406eb5"/><rect x="239.87" y="357.1" width="10.82" height="5.99" style="fill:#406eb5"/><rect x="260.39" y="357.1" width="10.82" height="5.99" style="fill:#406eb5"/><rect x="280.91" y="357.1" width="10.82" height="5.99" style="fill:#406eb5"/><rect x="301.43" y="357.1" width="10.82" height="5.99" style="fill:#406eb5"/><rect x="239.87" y="366.84" width="10.82" height="5.99" style="fill:#406eb5"/><rect x="260.39" y="366.84" width="10.82" height="5.99" style="fill:#406eb5"/><rect x="280.91" y="366.84" width="10.82" height="5.99" style="fill:#406eb5"/><rect x="301.43" y="366.84" width="10.82" height="5.99" style="fill:#406eb5"/><rect x="260.39" y="376.57" width="10.82" height="5.99" style="fill:#406eb5"/><rect x="280.91" y="376.57" width="10.82" height="5.99" style="fill:#406eb5"/><rect x="301.43" y="376.57" width="10.82" height="5.99" style="fill:#406eb5"/><rect x="260.39" y="386.3" width="10.82" height="5.99" style="fill:#406eb5"/><rect x="260.39" y="395.04" width="10.82" height="5.99" style="fill:#406eb5"/><rect x="280.91" y="386.3" width="10.82" height="5.99" style="fill:#406eb5"/><rect x="301.43" y="386.3" width="10.82" height="5.99" style="fill:#406eb5"/><rect x="320.73" y="407.27" width="26.43" height="5.99" style="fill:#406eb5"/><rect x="320.73" y="420" width="26.43" height="5.99" style="fill:#406eb5"/><rect x="320.73" y="432.73" width="26.43" height="5.99" style="fill:#406eb5"/><rect x="357.68" y="407.27" width="26.43" height="5.99" style="fill:#406eb5"/><rect x="357.68" y="420" width="26.43" height="5.99" style="fill:#406eb5"/><rect x="357.68" y="432.73" width="26.43" height="5.99" style="fill:#406eb5"/><rect x="394.63" y="407.27" width="26.43" height="5.99" style="fill:#406eb5"/><rect x="394.63" y="420" width="26.43" height="5.99" style="fill:#406eb5"/><rect x="394.63" y="432.73" width="26.43" height="5.99" style="fill:#406eb5"/><rect x="452.51" y="305.32" width="8.24" height="5.99" style="fill:#406eb5"/><rect x="464.12" y="305.32" width="8.24" height="5.99" style="fill:#406eb5"/><rect x="475.72" y="305.32" width="8.24" height="5.99" style="fill:#406eb5"/><rect x="452.51" y="315.05" width="8.24" height="5.99" style="fill:#406eb5"/><rect x="464.12" y="315.05" width="8.24" height="5.99" style="fill:#406eb5"/><rect x="475.72" y="315.05" width="8.24" height="5.99" style="fill:#406eb5"/><rect x="452.51" y="324.78" width="8.24" height="5.99" style="fill:#406eb5"/><rect x="464.12" y="324.78" width="8.24" height="5.99" style="fill:#406eb5"/><rect x="475.72" y="324.78" width="8.24" height="5.99" style="fill:#406eb5"/><rect x="452.51" y="334.52" width="8.24" height="5.99" style="fill:#406eb5"/><rect x="464.12" y="334.52" width="8.24" height="5.99" style="fill:#406eb5"/><rect x="475.72" y="334.52" width="8.24" height="5.99" style="fill:#406eb5"/><rect x="452.51" y="344.25" width="8.24" height="5.99" style="fill:#406eb5"/><rect x="464.12" y="344.25" width="8.24" height="5.99" style="fill:#406eb5"/><rect x="475.72" y="344.25" width="8.24" height="5.99" style="fill:#406eb5"/><rect x="452.51" y="353.98" width="8.24" height="5.99" style="fill:#406eb5"/><rect x="464.12" y="353.98" width="8.24" height="5.99" style="fill:#406eb5"/><rect x="475.72" y="353.98" width="8.24" height="5.99" style="fill:#406eb5"/><rect x="452.51" y="363.72" width="8.24" height="5.99" style="fill:#406eb5"/><rect x="464.12" y="363.72" width="8.24" height="5.99" style="fill:#406eb5"/><rect x="475.72" y="363.72" width="8.24" height="5.99" style="fill:#406eb5"/><rect x="452.51" y="373.45" width="8.24" height="5.99" style="fill:#406eb5"/><rect x="464.12" y="373.45" width="8.24" height="5.99" style="fill:#406eb5"/><rect x="475.72" y="373.45" width="8.24" height="5.99" style="fill:#406eb5"/><rect x="452.51" y="383.19" width="8.24" height="5.99" style="fill:#406eb5"/><rect x="464.12" y="383.19" width="8.24" height="5.99" style="fill:#406eb5"/><rect x="475.72" y="383.19" width="8.24" height="5.99" style="fill:#406eb5"/><rect x="452.51" y="392.92" width="8.24" height="5.99" style="fill:#406eb5"/><rect x="452.51" y="402.65" width="8.24" height="5.99" style="fill:#406eb5"/><rect x="452.51" y="412.39" width="8.24" height="5.99" style="fill:#406eb5"/><rect x="452.51" y="422.12" width="8.24" height="5.99" style="fill:#406eb5"/><rect x="452.51" y="431.85" width="8.24" height="5.99" style="fill:#406eb5"/><rect x="440.53" y="363.72" width="8.24" height="5.99" style="fill:#406eb5"/><rect x="440.53" y="373.45" width="8.24" height="5.99" style="fill:#406eb5"/><rect x="440.53" y="383.19" width="8.24" height="5.99" style="fill:#406eb5"/><rect x="464.12" y="392.92" width="8.24" height="5.99" style="fill:#406eb5"/><rect x="475.72" y="392.92" width="8.24" height="5.99" style="fill:#406eb5"/><rect x="487.7" y="363.72" width="8.24" height="5.99" style="fill:#406eb5"/><rect x="487.7" y="373.45" width="8.24" height="5.99" style="fill:#406eb5"/><rect x="487.7" y="383.19" width="8.24" height="5.99" style="fill:#406eb5"/><rect x="487.7" y="392.92" width="8.24" height="5.99" style="fill:#406eb5"/><rect x="445.02" y="143.84" width="5.99" height="146.38" style="fill:#406eb5"/><rect x="431.92" y="143.84" width="5.99" height="175.58" style="fill:#406eb5"/><rect x="418.82" y="143.84" width="5.99" height="249.71" style="fill:#406eb5"/><rect x="405.71" y="143.84" width="5.99" height="64.56" style="fill:#406eb5"/><rect x="392.61" y="143.84" width="5.99" height="66.8" style="fill:#406eb5"/><rect x="448.58" y="446.7" width="15.54" height="5.99" style="fill:#406eb5"/><rect x="474.97" y="414.88" width="5.99" height="8.99" style="fill:#406eb5"/><rect x="483.58" y="414.88" width="5.99" height="8.99" style="fill:#406eb5"/><rect x="496.5" y="414.88" width="5.99" height="8.99" style="fill:#406eb5"/><rect x="505.11" y="414.88" width="5.99" height="8.99" style="fill:#406eb5"/><rect x="518.03" y="414.88" width="5.99" height="8.99" style="fill:#406eb5"/><rect x="526.64" y="414.88" width="5.99" height="8.99" style="fill:#406eb5"/><rect x="539.55" y="414.88" width="5.99" height="8.99" style="fill:#406eb5"/><rect x="548.16" y="414.88" width="5.99" height="8.99" style="fill:#406eb5"/><rect x="561.08" y="414.88" width="5.99" height="8.99" style="fill:#406eb5"/><rect x="569.69" y="414.88" width="5.99" height="8.99" style="fill:#406eb5"/><rect x="474.97" y="429.48" width="5.99" height="8.98" style="fill:#406eb5"/><rect x="483.58" y="429.48" width="5.99" height="8.98" style="fill:#406eb5"/><rect x="496.5" y="429.48" width="5.99" height="8.98" style="fill:#406eb5"/><rect x="505.11" y="429.48" width="5.99" height="8.98" style="fill:#406eb5"/><rect x="518.03" y="429.48" width="5.99" height="8.98" style="fill:#406eb5"/><rect x="526.64" y="429.48" width="5.99" height="8.98" style="fill:#406eb5"/><rect x="539.55" y="429.48" width="5.99" height="8.98" style="fill:#406eb5"/><rect x="548.16" y="429.48" width="5.99" height="8.98" style="fill:#406eb5"/><rect x="561.08" y="429.48" width="5.99" height="8.98" style="fill:#406eb5"/><rect x="569.69" y="429.48" width="5.99" height="8.98" style="fill:#406eb5"/><rect x="118.57" y="224.33" width="20.22" height="5.99" style="fill:#406eb5"/><rect x="118.57" y="236.31" width="20.22" height="5.99" style="fill:#406eb5"/><path d="M408.48,394.75l4.08-182.62-3.14.08c-1.51,0-36.94,1.25-67.09,31.62h-14l10.46,151,6-.41-.43-6.15h5.5v-6h-5.91l-.7-10h6.61v-6h-7l-.7-10h7.72v-6h-8v1.37l-7.05-101.81H339l-.08.38,25.67,5.3v7.23h40.8l-2.95,131.89Zm-37.85-138v-6.12l-22-4.54a103.27,103.27,0,0,1,57.81-27.61l-.85,38.28Z" style="fill:#406eb5"/><rect x="354.65" y="270.1" width="16.23" height="5.99" style="fill:#406eb5"/><rect x="374.06" y="270.1" width="16.23" height="5.99" style="fill:#406eb5"/><rect x="354.65" y="286.13" width="16.23" height="5.99" style="fill:#406eb5"/><rect x="374.06" y="286.13" width="16.23" height="5.99" style="fill:#406eb5"/><rect x="354.65" y="302.16" width="16.23" height="5.99" style="fill:#406eb5"/><rect x="374.06" y="302.16" width="16.23" height="5.99" style="fill:#406eb5"/><rect x="354.65" y="318.19" width="16.23" height="5.99" style="fill:#406eb5"/><rect x="374.06" y="318.19" width="16.23" height="5.99" style="fill:#406eb5"/><rect x="354.65" y="334.22" width="16.23" height="5.99" style="fill:#406eb5"/><rect x="374.06" y="334.22" width="16.23" height="5.99" style="fill:#406eb5"/><rect x="354.65" y="350.26" width="16.23" height="5.99" style="fill:#406eb5"/><rect x="374.06" y="350.26" width="16.23" height="5.99" style="fill:#406eb5"/><rect x="354.65" y="366.29" width="16.23" height="5.99" style="fill:#406eb5"/><rect x="374.06" y="366.29" width="16.23" height="5.99" style="fill:#406eb5"/><rect x="354.65" y="382.32" width="16.23" height="5.99" style="fill:#406eb5"/><rect x="374.06" y="382.32" width="16.23" height="5.99" style="fill:#406eb5"/><rect x="393.51" y="270.1" width="8.04" height="5.99" style="fill:#406eb5"/><rect x="393.51" y="286.13" width="8.04" height="5.99" style="fill:#406eb5"/><rect x="393.51" y="302.16" width="8.04" height="5.99" style="fill:#406eb5"/><rect x="393.51" y="318.19" width="8.04" height="5.99" style="fill:#406eb5"/><rect x="393.51" y="334.22" width="8.04" height="5.99" style="fill:#406eb5"/><rect x="393.51" y="350.26" width="8.04" height="5.99" style="fill:#406eb5"/><rect x="393.51" y="366.29" width="8.04" height="5.99" style="fill:#406eb5"/><rect x="393.51" y="382.32" width="8.04" height="5.99" style="fill:#406eb5"/><rect x="341.82" y="270.1" width="8.04" height="5.99" style="fill:#406eb5"/><rect x="341.82" y="286.13" width="8.04" height="5.99" style="fill:#406eb5"/><rect x="341.82" y="302.16" width="8.04" height="5.99" style="fill:#406eb5"/><rect x="341.82" y="318.19" width="8.04" height="5.99" style="fill:#406eb5"/><rect x="341.82" y="334.22" width="8.04" height="5.99" style="fill:#406eb5"/></svg>