<svg id="Layer_1" data-name="Layer 1" xmlns="http://www.w3.org/2000/svg" viewBox="0 0 583 115"><title>Artboard 1</title><path d="M19.85,40.6a13.43,13.43,0,0,1-1.35-3.12,13.73,13.73,0,0,1-.62-4.16q0-4.06,1.82-5.82a6.5,6.5,0,0,1,4.73-1.77H69.77a13.55,13.55,0,0,1,1.35,3.12A13.73,13.73,0,0,1,71.74,33q0,4.06-1.82,5.82a6.5,6.5,0,0,1-4.73,1.77H53.65v48a29,29,0,0,1-3.59.62,38.17,38.17,0,0,1-4.84.31A21.68,21.68,0,0,1,41,89.22a7.47,7.47,0,0,1-3.07-1.3,5.62,5.62,0,0,1-1.87-2.6A12.67,12.67,0,0,1,35.45,81V40.6Z" style="fill:#406eb5"/><path d="M98.78,88.65a29,29,0,0,1-3.59.62,38.17,38.17,0,0,1-4.84.31,21.68,21.68,0,0,1-4.21-.36,7.47,7.47,0,0,1-3.07-1.3,5.62,5.62,0,0,1-1.87-2.6A12.67,12.67,0,0,1,80.58,81V26q1.14-.21,3.64-.57A33.31,33.31,0,0,1,89,25.1a21.74,21.74,0,0,1,4.21.36,7.51,7.51,0,0,1,3.07,1.3,5.62,5.62,0,0,1,1.87,2.6,12.68,12.68,0,0,1,.62,4.37Z" style="fill:#406eb5"/><path d="M144.44,38.73q-8,0-12.27,4.89T127.9,57.45q0,9,4.73,13.94t12.74,4.89a20.12,20.12,0,0,0,7.23-1.14,49.47,49.47,0,0,0,5.67-2.6A10.36,10.36,0,0,1,161,76a10.69,10.69,0,0,1,1,4.73Q162,85,157.28,88t-14.4,3a42.52,42.52,0,0,1-13.1-2,29.2,29.2,0,0,1-10.71-6.08,28.68,28.68,0,0,1-7.23-10.4,38.57,38.57,0,0,1-2.65-15,37.31,37.31,0,0,1,2.55-14.3,30.37,30.37,0,0,1,7-10.45A29.33,29.33,0,0,1,129,26.25a36.41,36.41,0,0,1,12.69-2.18q9.57,0,14.82,3.12t5.25,8a8.09,8.09,0,0,1-1.35,4.68A11.13,11.13,0,0,1,157.34,43a33.87,33.87,0,0,0-5.77-3A18.81,18.81,0,0,0,144.44,38.73Z" style="fill:#406eb5"/><path d="M189.58,40.6a13.43,13.43,0,0,1-1.35-3.12,13.73,13.73,0,0,1-.62-4.16q0-4.06,1.82-5.82a6.5,6.5,0,0,1,4.73-1.77H239.5a13.55,13.55,0,0,1,1.35,3.12,13.73,13.73,0,0,1,.62,4.16q0,4.06-1.82,5.82a6.5,6.5,0,0,1-4.73,1.77H223.38v48a29,29,0,0,1-3.59.62,38.17,38.17,0,0,1-4.84.31,21.68,21.68,0,0,1-4.21-.36,7.47,7.47,0,0,1-3.07-1.3,5.62,5.62,0,0,1-1.87-2.6,12.67,12.67,0,0,1-.62-4.37V40.6Z" style="fill:#406eb5"/><path d="M259.57,27.91a22.05,22.05,0,0,1,5.36-2,28.51,28.51,0,0,1,7.23-.94,26,26,0,0,1,9.2,1.51,8,8,0,0,1,5.15,4.73q1.87,5.41,4.06,12.58t4.37,14.82q2.18,7.64,4.26,15.08t3.64,13.16a8.57,8.57,0,0,1-3.74,2.34,17.81,17.81,0,0,1-5.93.88,18.23,18.23,0,0,1-4.21-.42,7.49,7.49,0,0,1-2.81-1.25,6.13,6.13,0,0,1-1.77-2.18,18.67,18.67,0,0,1-1.2-3.12L281.3,76H262.48q-.83,3.12-1.66,6.45t-1.66,6.45a26.79,26.79,0,0,1-3.07.88,18,18,0,0,1-3.9.36q-5.3,0-7.85-1.82a5.85,5.85,0,0,1-2.55-5,10.55,10.55,0,0,1,.42-2.91q.41-1.46.94-3.43.73-2.81,2-7t2.86-9q1.56-4.84,3.33-9.93l3.33-9.62q1.56-4.52,2.86-8.06T259.57,27.91ZM272,41.33q-1.46,4.37-3.28,9.72T265.5,61.92h12.9q-1.46-5.62-3-11t-2.76-9.62Z" style="fill:#406eb5"/><path d="M342.46,38.73q-8,0-12.27,4.89t-4.26,13.83q0,9,4.73,13.94t12.74,4.89a20.12,20.12,0,0,0,7.23-1.14,49.43,49.43,0,0,0,5.67-2.6A10.36,10.36,0,0,1,359,76a10.69,10.69,0,0,1,1,4.73Q360,85,355.3,88t-14.4,3a42.52,42.52,0,0,1-13.1-2,29.21,29.21,0,0,1-10.71-6.08,28.68,28.68,0,0,1-7.23-10.4,38.58,38.58,0,0,1-2.65-15,37.31,37.31,0,0,1,2.55-14.3,30.35,30.35,0,0,1,7-10.45,29.33,29.33,0,0,1,10.35-6.45,36.41,36.41,0,0,1,12.69-2.18q9.57,0,14.82,3.12t5.25,8a8.09,8.09,0,0,1-1.35,4.68A11.14,11.14,0,0,1,355.35,43a33.86,33.86,0,0,0-5.77-3A18.81,18.81,0,0,0,342.46,38.73Z" style="fill:#406eb5"/><path d="M387.59,40.6a13.45,13.45,0,0,1-1.35-3.12,13.73,13.73,0,0,1-.62-4.16q0-4.06,1.82-5.82a6.5,6.5,0,0,1,4.73-1.77h45.34a13.54,13.54,0,0,1,1.35,3.12,13.73,13.73,0,0,1,.62,4.16q0,4.06-1.82,5.82a6.5,6.5,0,0,1-4.73,1.77H421.39v48a29,29,0,0,1-3.59.62,38.16,38.16,0,0,1-4.84.31,21.68,21.68,0,0,1-4.21-.36,7.46,7.46,0,0,1-3.07-1.3,5.62,5.62,0,0,1-1.87-2.6,12.67,12.67,0,0,1-.62-4.37V40.6Z" style="fill:#406eb5"/><path d="M442.5,57.45a37.7,37.7,0,0,1,2.55-14.35,28.93,28.93,0,0,1,17.37-16.85,39.47,39.47,0,0,1,25.9,0,30.15,30.15,0,0,1,10.45,6.4,29.41,29.41,0,0,1,7,10.45,37.74,37.74,0,0,1,2.55,14.35,38.84,38.84,0,0,1-2.5,14.4,29.07,29.07,0,0,1-6.92,10.5,29.53,29.53,0,0,1-10.45,6.4,38.23,38.23,0,0,1-13.1,2.18,37.42,37.42,0,0,1-13.1-2.24,29.2,29.2,0,0,1-10.4-6.5A30,30,0,0,1,445,71.7,38.12,38.12,0,0,1,442.5,57.45Zm18.72,0q0,9.47,3.85,14.14a13.78,13.78,0,0,0,20.7,0q3.85-4.68,3.85-14.14t-3.8-14a12.61,12.61,0,0,0-10.35-4.68,12.86,12.86,0,0,0-10.35,4.63Q461.23,48,461.23,57.45Z" style="fill:#406eb5"/><path d="M518.74,35.71a9.55,9.55,0,0,1,2.6-7.07,9.55,9.55,0,0,1,7.07-2.6h34.32a12.52,12.52,0,0,1,1.3,3,13.47,13.47,0,0,1,.57,4q0,4-1.72,5.62a6.22,6.22,0,0,1-4.52,1.66H536.42V50h23.4a12.7,12.7,0,0,1,1.3,3,13,13,0,0,1,.57,3.9q0,4-1.66,5.62a6,6,0,0,1-4.47,1.66H536.42V75h26.73a12.52,12.52,0,0,1,1.3,3,13.47,13.47,0,0,1,.57,4q0,4-1.72,5.67a6.12,6.12,0,0,1-4.52,1.72H528.41a9,9,0,0,1-9.67-9.67Z" style="fill:#406eb5"/></svg>